<?xml version="1.0" encoding="UTF-8"?>
<svg xmlns="http://www.w3.org/2000/svg">
	<defs>
		<symbol id="cke4-icon-emoji-1" viewBox="0 0 3000 3000">
            <path fill="#FC9142" d="M1196.754 2780.998c-7.221-48.492-64.781-102.299-103.885-131.885-26.242-19.821-60.193-25.513-92.592-31.172-269.631-47.002-532.475-132.767-777.99-253.758 129.725-166.246 330.518-256.736 512.563-363.172 67.807-39.644 137.813-86.745 167.455-159.49 15.945-39.121 18.586-82.199 21.031-124.361 9.936-170.791 45.131-331.893 55.066-502.685l5.111-96.599C945.85 847.141 976.547 567.166 1072 311.02c6.936-18.611 17.271-39.742 36.832-43.192 170.57 235.163 344.707 514.452 416.756 795.891l230.797-19.765c69.672-260.031 183.5-578.709 308.826-816.956 228.557 432.777 263.686 937.891 390.631 1410.565 119.16 443.816 247.789 670.066 375.928 1142.405"/><path fill="#FFF" d="M2182.752 2788.26c-2.438-64.176-8.211-346.131-35.375-404.287-53.334-114.188-181.129-178.43-306.438-192.086-125.311-13.656-250.881 14.441-374.555 38.777-330.789 65.059-863.199 113.436-1231.268 127.729-1.906 2.388-4.139 4.433-6.012 6.869 245.5 120.959 508.361 206.723 777.992 253.742 32.406 5.643 66.35 11.334 92.592 31.155 39.104 29.586 51.1 82.363 58.313 130.838"/><path fill="#E26600" d="M1017.678 1192.356c-18.979-139.473 10.631-367.734 28.098-507.338 8.709-69.605 22.578-138.72 40.381-206.543 8.568-32.676 18.152-65.059 28.719-97.114 5.543-16.821 11.332-33.51 17.416-50.127 2.479-6.771 4.172-11.488 7.385-17.72 2.592-4.988 7.064-6.248 3.451-5.209-15.807-6.428-31.621-12.863-47.428-19.29 167.471 230.927 339.629 469.019 412.553 749.166 13.607 52.27 94.629 30.092 80.988-22.324-74.83-287.482-249.129-532.205-421.01-769.225-10.965-15.128-28.301-24.81-47.428-19.314-36.176 10.435-53.309 39.472-66.154 72.533-13.943 35.923-25.67 72.884-36.537 109.829-22.707 77.104-39.709 155.901-51.018 235.499-22.855 161.143-52.352 408.277-30.412 569.502 3.066 22.487 31.893 34.77 51.664 29.324 24.254-6.666 32.39-29.088 29.332-51.649M1835.084 988.65c69.18-256.751 166.033-504.958 289.543-740.457h-72.518c168.584 321.312 230.553 682.896 302.529 1034.75 36.635 179.116 77.865 356.728 131.982 531.429 55.932 180.424 120.631 357.971 177.938 537.937 63.473 199.298 65.551 197.794 86.402 406.446 2.273 22.569 17.68 41.998 41.982 41.998 20.967 0 44.256-19.298 41.998-41.998-38.057-380.9-127.533-532.148-244.141-893.521-57.406-177.873-103.689-358.036-142.008-540.938-37.715-179.999-70.832-361.037-114.924-539.646-49.262-199.674-113.453-396.29-209.242-578.849-14.359-27.361-58.174-27.361-72.518 0-126.764 241.697-227.002 496.994-298.014 760.524-14.062 52.254 66.927 74.546 80.991 22.325"/><path fill="#FFE8D7" d="M330.375 2391.397c277.473-7.049 554.234-31.794 828.6-73.629 138.77-21.195 275.689-51.583 414.092-74.446 115.773-19.135 241.803-26.249 350.563 25.709 50.861 24.336 97.701 59.449 127.402 108.105 35.588 58.254 58.566 320.061 61.248 386.738 2.176 53.855 86.172 54.117 83.98 0-2.764-68.608-26.641-330.283-54.461-393.771-22.111-50.52-58.156-93.418-101.432-127.141-98.307-76.605-224.156-102.381-346.604-96.951-146.75 6.477-291.252 46.186-435.525 71.012-143.004 24.598-286.777 44.289-431.141 59.008-165.109 16.829-330.822 27.148-496.723 31.369-53.938 1.373-54.159 85.371.001 83.997"/><path fill="#E26600" d="M1287.857 1189.706c250.75-89.46 517.641-121.335 782.424-93.737 22.584 2.363 41.98-20.983 41.98-41.982 0-24.671-19.314-39.619-41.98-41.982-271.211-28.285-547.932 5.07-804.748 96.713-50.545 18.039-28.752 99.207 22.324 80.988"/><path d="M1744.92 1691.892c12.938 77.586 3.223 140.797-10.303 218.302-4.955 28.44-18.809 62.917-47.607 63.963-34.836 1.243-47.445-45.171-48.656-80.104-1.455-42.244-2.91-84.488-4.367-126.732-.686-19.871-1.275-40.38 5.922-58.894 7.229-18.53 23.092-52.286 42.914-51.909 19.854.393 36.045 0 52.662 18.758M1505.57 1691.892c12.953 77.586 3.223 140.797-10.295 218.302-4.955 28.44-18.809 62.917-47.6 63.963-34.844 1.243-47.463-45.171-48.664-80.104-1.455-42.244-2.912-84.488-4.375-126.732-.688-19.871-1.268-40.38 5.953-58.894 7.195-18.53 23.061-52.286 42.883-51.909 19.846.393 36.061 0 52.67 18.758M1767.998 1480.541c2.158-2.551 6.754-5.413 8.275-8.177-3.992 3.009-4.613 3.598-1.832 1.668.523-.344 1.063-.687 1.619-1.014 1.635-.981 3.352-1.799 5.02-2.715 5.643-3.042-6.346 1.897-.572.376 1.865-.507 3.68-1.177 5.545-1.619 1.324-.343 4.596-.49 5.725-1.177-5.006.622-6.248.785-3.697.523.982-.098 1.963-.164 2.928-.229 3.99-.229 7.9 0 11.873.164 7.018.311-7.506-1.505-.637-.065 1.963.409 3.926.785 5.871 1.275 1.945.507 3.877 1.063 5.756 1.701 2.471.817 7.018 3.696-.195-.376 3.451 1.963 7.146 3.451 10.533 5.593 1.291.834 4.268 2.094 4.889 3.369-.947-.72-1.912-1.439-2.877-2.159 1.176.949 2.322 1.946 3.434 2.977 3.402 3.091 6.395 6.46 9.486 9.829 4.35 4.727-3.305-5.152.555.67 1.26 1.914 2.602 3.745 3.828 5.708 2.436 3.859 4.66 7.883 6.705 11.972.98 1.995 2.42 4.187 2.943 6.28-.49-1.112-.98-2.258-1.455-3.402.572 1.456 1.129 2.895 1.684 4.351 1.473 3.991 2.781 8.079 3.992 12.168 2.682 9.322 4.611 18.841 6.033 28.408 2.471 16.682 24.402 27.329 39.498 22.438 18.234-5.888 25.088-21.637 22.455-39.496-6.936-46.775-29.324-96.452-72.141-120.6-40.494-22.831-98.979-21.22-130.658 16.142-10.844 12.806-13.492 33.02 0 45.417 11.954 10.958 33.804 13.673 45.417 0"/><path fill="#E26600" d="M934.262 1204.802c-6.484 111.539-12.961 223.069-19.445 334.583-3.23 55.803-6.469 111.539-9.715 167.309-2.674 45.777-3.631 94.268-26.355 135.416-41.402 74.954-129.178 115.988-200.738 156.285-78.977 44.436-158.975 87.302-234.859 136.954-84.66 55.442-164.391 119.454-227.412 199.151-15.391 19.461-18.219 52.842 8.496 65.958 163.701 80.334 334.502 146.21 510.184 195.159 86.852 24.223 174.84 44.354 263.58 60.301 33.617 6.034 78.158 8.177 102.348 35.768 23.107 26.38 28.367 66.089 33.494 99.452 3.451 22.405 31.613 34.819 51.646 29.308 23.961-6.574 32.793-29.145 29.342-51.648-13.264-86.172-49.285-159.883-139.604-183.237-44.363-11.481-90.639-16.911-135.508-26.314-45.703-9.567-91.168-20.247-136.332-32.022-185.143-48.263-365.012-114.989-536.768-199.281 2.83 21.965 5.676 43.961 8.514 65.941 116.322-147.126 285.012-232.791 445.271-322.988 80.48-45.285 167.029-91.209 220.338-169.449 58.598-86.043 48.957-205.252 54.715-304.524 7.604-130.707 15.193-261.405 22.789-392.119 3.132-53.999-80.85-53.81-83.981-.003"/><path d="M163.033 2383.481c136.602 67.333 277.547 125.669 421.354 175.78 13.852-173.393 21.637-347.275 21.775-521.223-166.049 94.448-326.758 196.306-443.129 345.443"/><path fill="#FF92B4" d="M1685.963 2363.561c13.541 37.779 37.615 71.699 68.787 96.95 14.686 11.906 31.318 22.047 49.816 25.841 58.189 11.874 112.52-47.265 114.547-106.632 2.063-59.336-49.145-128.385-90.408-171.104l-142.742 154.945z"/><path d="M1650.914 2373.211c28.344 76.769 104.654 170.088 197.025 147.438 38.4-9.404 71.648-39.432 89.525-74.104 20.213-39.283 22.717-83.801 10.041-125.979-14.195-47.085-43.732-87.775-77.357-122.938-13.574-14.195-37.764-13.672-51.436 0-14.162 14.164-13.607 37.175 0 51.387 26.479 27.705 50.012 59.073 59.826 94.89 3.254 11.906 4.023 16.028 4.268 27.394.098 4.072-.049 8.096-.229 12.136-.426 4.465-.459 4.956-.098 1.423-.426 2.47-.916 4.906-1.537 7.326-3.533 14.426-11.252 28.557-19.889 37.878-2.943 3.173-6.066 6.101-9.289 8.979-3.32 2.796-3.744 3.123-1.275 1.029-1.963 1.406-3.99 2.699-6.051 3.941-9.42 5.594-7.018 3.941-17.533 6.951-4.35.785-4.611.916-.801.295-2.371.212-4.727.294-7.115.277-1.537-.016-11.152-1.586-4.758-.245-10.418-2.191-15.947-4.808-25.17-10.647-30.813-19.445-55.836-53.74-68.035-86.744-6.805-18.399-24.631-30.928-44.73-25.398-17.712 4.871-32.218 26.214-25.382 44.711"/><path d="M1822.164 2314.023c-1.145-.834-2.307-1.685-3.451-2.568 2.469 1.881 4.906 3.795 7.377 5.691-8.275-6.443-15.686-13.868-22.08-22.127 1.898 2.437 3.795 4.906 5.676 7.344-2.863-3.729-5.512-7.622-7.949-11.678-2.273-4.22-5.412-7.621-9.371-10.173-3.5-3.206-7.621-5.397-12.363-6.509-4.824-1.537-9.666-1.75-14.49-.654-4.842.213-9.355 1.652-13.51 4.317-2.469 1.897-4.906 3.794-7.375 5.675-4.498 4.531-7.621 9.879-9.34 16.045l-1.307 9.665c.031 6.558 1.668 12.675 4.971 18.35 5.855 9.715 12.887 18.923 20.574 27.247 7.719 8.391 16.697 15.488 25.939 22.16 4.186 2.666 8.684 4.105 13.525 4.318 4.824 1.079 9.664.883 14.473-.654 4.742-1.112 8.865-3.304 12.396-6.493 3.941-2.584 7.066-5.97 9.355-10.222 1.211-2.895 2.453-5.773 3.664-8.668 1.732-6.443 1.732-12.887 0-19.348-1.211-2.878-2.453-5.773-3.664-8.668-3.237-5.462-7.587-9.828-13.05-13.05"/><path d="M1803.912 2093.857c-45.105 125.227-142.613 227.705-263.67 283.131-17.852 8.194-22.258 34.002-13.051 49.734 10.729 18.351 31.826 21.262 49.75 13.052 138.395-63.342 245.713-183.908 297.1-326.586 6.641-18.481-7.523-39.823-25.398-44.729-20.2-5.561-38.059 6.868-44.731 25.398"/>
        </symbol>

		<symbol id="cke4-icon-emoji-2" viewBox="0 0 240 240" fill="#454545">
            <path d="M81.8946 18.9268c-3.9727 2.8901-11.0762 8.0669-15.8916 11.5581l-8.6689 6.3813 2.6489 4.4546c1.4443 2.4077 4.5747 6.9834 6.8623 10.354 7.103 9.873 7.2236 10.1133 4.6953 16.8555-1.3237 3.251-2.769 6.5015-3.3706 7.2241-.4814.6021-1.5654 3.3706-2.4082 5.8989-.8428 2.6494-3.853 8.3076-6.6221 12.6416-2.7686 4.3345-5.0566 8.7896-5.1768 9.7524 0 .9629-.9634 4.8159-1.9263 8.4277-1.0835 3.6118-1.9263 8.3071-1.9263 10.354 0 6.9834-1.4453 11.3174-3.6123 11.3174-3.251 0-6.0195 3.9727-6.0195 8.7891 0 4.335 2.4077 8.0664 5.2969 8.0664.8433 0 2.4082 3.1299 3.4917 6.8633 1.084 4.2139 3.6118 8.9082 6.1401 11.918l4.3345 5.0576-3.0098 8.668c-2.769 8.1875-5.418 23.5977-5.418 31.7852 0 6.6221 1.3247 2.2871 2.5288-8.4277.6016-5.8994 2.5283-15.1699 4.2139-20.5879l3.0098-9.9932 4.4541 2.7695c8.7891 5.2979 17.8193 9.2705 26.3672 11.4375 9.5117 2.4082 12.4009 4.5742 19.2637 13.8457 2.6484 3.4912 3.9727 6.502 3.4912 7.7051-.8428 2.167 3.4922 7.585 6.0195 7.585.8428 0 4.0938-3.1299 7.2236-6.9824 10.957-13.4844 14.4482-16.7353 19.626-17.9395 3.9727-1.083 4.9355-.9629 4.9355.3604 0 .9648.6016 1.6865 1.2041 1.6865.7217 0 1.2041-.7217 1.2041-1.6865 0-.9629 3.1289-3.1299 6.8623-4.9355 3.7314-1.6855 8.5479-4.4551 10.7148-6.0195l3.7334-2.8906 2.7686 12.04c1.8057 8.0674 2.5283 13.9668 2.0469 17.6982-.6025 4.6963-.4824 5.0576.6025 2.6494 1.4443-3.7314.4805-17.5771-2.0479-26.9697l-1.8057-6.9824 3.6113-4.0928c10.5957-12.1611 11.9199-25.1631 2.8906-28.8955-2.168-.9639-4.9375-1.6855-6.1406-1.5654-1.2041 0-.2412.6016 2.0469 1.3252 5.2979 1.4443 7.9453 3.8525 9.0293 7.8252 1.084 4.4551-5.2979 17.2168-12.0391 23.7188-6.1406 6.0195-19.7461 13.3633-21.4307 11.6768-1.2041-1.2031-1.3252-8.3066-.2412-15.1689l.8428-4.8154-2.4072 3.7314c-1.3252 2.168-3.0098 4.2139-3.7334 4.5762-1.9258 1.2041-1.6846 6.2598.4824 10.3535l1.8057 3.3711-6.1396 1.3252c-18.1807 3.9727-51.8916-1.2041-71.3955-10.8359-13.7256-6.7432-23.2373-17.0967-24.4414-26.4873-.4814-3.7334-1.5645-5.1787-4.6953-6.9844-4.6953-2.8887-5.4175-6.7412-1.8057-11.0762 1.9268-2.2871 2.5283-2.5283 4.0938-1.3242 1.5654 1.3242 2.2876.9639 4.6953-2.4082 1.6855-2.167 5.6582-7.8252 9.0303-12.4004 3.3706-4.6953 7.8252-9.9927 9.7515-11.7988 4.0942-3.9731-.6021-3.9731 60.439.9634 47.6768 3.8525 44.1865 3.1304 45.6309 9.3906l1.2041 5.0571-.6016-6.02c-.3623-3.3711-2.0469-9.0298-3.7334-12.6416-2.6494-5.5386-3.251-8.9097-3.7314-20.5884l-.4824-13.9658 14.5684-9.8721 14.6875-9.9932-6.9824-7.9458c-6.6221-7.8257-13.6045-16.0132-16.1328-19.2637-1.4443-1.686-4.9365-1.4448-16.1328 1.6855-25.8857 6.8623-33.7109 8.668-34.916 7.8257-.6016-.6021-6.3799-3.853-12.6406-7.3442-6.2612-3.4917-14.207-7.8257-17.5786-9.7524L88.878 13.75l-6.9834 5.1768zm-21.0693 89.8159c1.2041.8433 1.0835 1.4453-.9629 2.7695-2.2871 1.6855-2.4082 1.9258-.6021 3.4917 1.6855 1.4443 1.6855 1.6851-.2407 3.1304-1.2041.8423-2.769 1.5649-3.3711 1.5649-.7227 0-.2412-.7227.9629-1.4453 2.2876-1.3237 2.2876-1.3237 0-3.0098-2.167-1.6855-2.167-1.8062 0-3.3711 1.2041-.8428 1.8057-2.167 1.3242-2.8892-.8428-1.5653.6025-1.6855 2.8897-.2411zm92.3437 74.8862c.1211 5.7803 0 6.0195-1.4434 3.3721-2.0479-3.6113-2.0479-6.2607-.2412-8.0664.8428-.8428 1.4453-1.4453 1.5645-1.4453 0 0 0 2.7685.1201 6.1396zm-32.0244 13.7256c2.2871 2.7695.9629 3.1299-2.2881.4824-1.9268-1.5664-2.167-2.2881-.9639-2.2881.9639 0 2.4082.8428 3.252 1.8057zm4.8154-.6016c0 .6016-.4824 1.2041-1.2041 1.2041-.6016 0-1.2041-.6025-1.2041-1.2041 0-.7217.6025-1.2041 1.2041-1.2041.7217 0 1.2041.4824 1.2041 1.2041zm-1.6865 8.3076c-3.7314 4.6953-7.1025 8.5479-7.4639 8.5479-.2402 0 2.5283-4.0938 6.2607-9.0303 3.7324-5.0566 7.1035-8.7881 7.3447-8.5469.3604.3604-2.4081 4.333-6.1415 9.0293z"/><path d="M106.8169 121.625c-2.8892 1.2041-3.7319 2.167-2.8892 3.0107 1.5645 1.5645 9.2695-2.0479 8.1865-3.7334-.4814-.7217-.8428-1.2031-.9629-1.2031-.12.1201-2.0468.8428-4.3344 1.9258zM127.1641 121.9863c0 1.3242 3.0098 2.5283 6.3809 2.5283 2.6484-.1201 2.6484-.1201.3613-1.8057-2.6484-2.0468-6.7422-2.4081-6.7422-.7226zM94.4161 131.498c-1.2041.4814 2.6484.8428 8.5478.8428s10.1133-.3613 9.3916-.8428c-1.8066-1.0839-15.1699-1.0839-17.9394 0zM127.4053 131.6182c-.9639.4814 2.5273.7227 7.8252.4814 12.6416-.7217 13.8457-1.3242 2.7695-1.4443-4.9365 0-9.7519.3613-10.5947.9629zM179.1758 135.3506c0 2.2871.2402 3.251.6016 2.0469.2412-1.084.2412-3.0098 0-4.2139-.3613-1.084-.6016-.1201-.6016 2.167zM83.8213 138.9629c0 .6016.4814 1.2031 1.083 1.2031.7227 0 1.5659-.6016 1.9268-1.2031.3608-.7227-.1206-1.2041-1.0835-1.2041-1.0835 0-1.9263.4814-1.9263 1.2041zM113.0772 141.9727c-2.2871 2.2881-5.1768 4.8154-6.2603 5.418-1.5654.8428-1.0835 1.084 1.9263 1.2031 2.2881 0 5.1768-1.2031 7.3438-3.0098 2.0479-1.6855 4.2139-3.0098 5.0576-3.0098.7217 0 3.1289 1.3242 5.2969 3.0098 2.7695 2.0469 5.418 3.0098 8.668 2.8906 4.0938 0 4.335-.1211 1.9277-1.2041-1.5654-.6025-4.5752-3.0098-6.7432-5.2979-5.6582-5.8994-11.3164-5.8994-17.2168.0001zM144.0196 200.7256c-7.3438 3.7334-2.6494 7.4648 7.7061 6.1406 3.0098-.4814 5.5381-.3613 5.6572.2402 0 .6016.1211 4.5762.2412 8.9102l.2412 7.8252-6.2607.3613-6.1396.3613-.8438-5.0566c-1.084-6.0195-4.0938-13.8447-4.0938-10.1133 0 1.3242.9648 5.6592 2.0469 9.6318l2.0469 7.2236 13.2441-.4824c7.3438-.2393 13.8457-.8418 14.4473-1.5645 1.8066-1.6846 1.4453-14.8086-.4824-17.0967-.8418-1.083-2.6475-1.9258-3.8516-1.9258-1.3242 0-2.2871-.7217-2.2871-1.5654 0-4.0936-15.4112-6.1405-21.6719-2.8895zm18.1797.9629c4.335 2.2881 1.084 3.4922-9.2695 3.4922-13.0039 0-13.8457-2.0469-1.6865-3.9727 5.7782-.9629 8.5478-.8438 10.956.4805zm8.3076 6.5019c2.0469 2.5283 2.8896 10.7158 1.3232 13.7256-1.082 2.0459-2.5273 2.5283-6.7412 2.5283-3.9727 0-5.418-.4824-5.418-1.8066 0-1.084 1.2041-1.8057 2.7686-1.9258 2.5293-.1211 2.5293-.1211-.2402-.9639-3.9727-1.083-4.6953-3.7314-1.083-3.8516h2.7686l-2.6484-1.3252c-1.5654-.7217-2.7695-1.8057-2.7695-2.2871s1.2041-1.2041 2.7695-1.4443l2.6484-.4824-2.6484-.9629c-1.5654-.4824-2.4082-1.3242-2.0469-1.9258 1.0839-1.8056 9.7519-1.2041 11.3173.7217z"/>
        </symbol>

		<symbol id="cke4-icon-emoji-3" viewBox="0 0 360 360" fill="#454545">
            <path d="M179.8 10.5c-.3.4-5.7 1.3-11.9 2.1-14.9 1.8-24.6 5-32.4 10.9-1.6 1.2-5 2.5-7.5 2.8-5.5.7-22.8 6.5-29 9.7-6.4 3.2-14.6 8.6-19.8 12.9-9.9 8.2-20.9 25.5-26.9 42.6-2.6 7.5-2.8 9-2.8 25 0 21.9 1.9 29 11.1 41 2.9 3.8 4.3 7.2 6.5 16.1 3.6 14 6.9 23.1 13 35.8 1.6 3.3 2.9 6.1 2.9 6.2 0 .2-2.1.4-4.6.6-6.4.4-8.9 3.7-8.8 11.6.1 14.9 13.3 25.9 38.1 31.7 3.7.9 18.6 3.2 33 5 14.5 1.9 26.7 3.6 27.3 4 .5.3.3 2-.7 4.1-1.4 2.9-1.5 3.8-.4 5.6 1.3 2.1.9 10.6-1 17.9-.5 1.9-1.3 9.4-1.8 16.5-1.3 17.3-4 44.6-4.6 46.1-.3.9.6 1.3 2.5 1.3 3.2 0 2.9 1.1 5-19 .6-5.8 1.3-12 1.6-13.9l.5-3.4 5.4 5.3 5.4 5.3-.6 6.8-.6 6.8 5.8 6 5.8 6.1h20.5l3.7-5.8c1.9-3.1 3.8-6.7 4.1-7.9.6-2.1 1-2.2 5.8-1.7 10.4 1.2 25.4-3.8 33.5-11.1 8.7-7.9 14.1-20.8 14.3-34.5 0-4.4.2-8 .4-8s2.3 2.8 4.7 6.2c5.5 7.8 18.3 33.1 25.2 49.8 4.3 10.4 5.5 12.6 7.5 12.8 2.1.3 2.2.1 1.6-2.9-1.2-6.2-5.2-15.6-15.9-37.1-8-16.3-12.3-23.6-16.8-29-3.2-4-8.2-10.5-10.8-14.4-6.1-8.7-16.1-18.1-23.5-21.8l-5.5-2.8 7.2-5.7c4-3.2 8.1-7.4 9.1-9.3 1.7-3.2 2.2-3.5 4.3-2.7 1.4.5 3.9.9 5.7.9 4.4 0 20.5-5.2 25.9-8.3 15.8-9.3 19.7-29.9 8.2-43.6-2.3-2.7-2.6-3.6-1.7-5 10.8-15 14.7-29.4 13.9-50.1-.9-20.5-7.2-42-19-64.4-9.7-18.4-33.2-36.5-59.7-46-15.3-5.6-22.7-7-38-7.3-8-.2-14.9-.1-15.2.2zm60.3 40.1c7.6 3.8 19.4 14.3 18.7 16.6-1 2.9-4.1 1.8-9.8-3.6-3.6-3.2-9.1-7-13.5-9.1-6.9-3.2-8.6-5-6.8-6.8 1.3-1.4 4.6-.6 11.4 2.9zm-15.3 5.9c4.8 2.2 17.2 12.7 17.2 14.6 0 .4-.7 1.5-1.6 2.4-1.5 1.4-2.1 1.1-7.7-4.1-3.4-3.2-9-7-12.4-8.7-6.9-3.2-7.8-4-6.9-6.4.7-1.8 3.7-1.3 11.4 2.2zm-13.3 7.6c6.9 2.6 15.5 9.2 15.5 12 0 3.4-2.7 3.3-7.2-.4-5.6-4.5-9.6-6.5-14.8-7.3-4.2-.7-5.7-2.2-4.6-4.9.8-2.1 4.5-1.9 11.1.6zm-92.1 12c.8 3.9 5.2 10.1 9.2 12.8 5.1 3.5 16.6 8 25.1 9.7 11.3 2.4 29.5 1.5 42.7-2.1 8.9-2.4 10.5-2.5 14.4-1.4 9.6 2.7 23.6 14.4 30.1 25.3 7.5 12.5 14 34.2 16.1 53.4 1.2 11.3.8 14.9-2.1 20-1.4 2.5-1.7 3.8-.9 5.3 1.7 3.2 4.3 2.1 7.7-3.1 3.8-5.8 10.6-10.1 18.9-11.9 7.7-1.8 11.7-.8 15.4 3.7 7.5 9.2 6.6 20.9-2.4 29.8-4.5 4.6-6.3 5.5-14.9 8.3-12.1 3.8-16.5 4-20.1.6-1.5-1.4-3-2.5-3.5-2.5-1.5 0-3.1 2.5-3.1 4.7 0 6.3-7.9 13.7-28 26.3-15.9 10-21.7 14.5-26.8 21.5-2.4 3.3-4.8 6.1-5.2 6.3-.5.2-2.4-2.1-4.3-5-4.5-6.9-9.1-11.2-14.8-13.7-4.4-2-9.8-2.9-40.4-7.1-29.7-4.1-43.3-8.7-51.2-17.3-4.2-4.6-5.8-8.8-5.1-14.3.4-3.6 3.4-4.2 9.8-2 2.3.8 4.9 1.2 5.6.9 1.6-.6 1.9-5 .4-5.5-1.6-.5-13.6-27.6-16-36.3-7.1-25.4-8-33.6-5.6-51 4.2-29.6 10.4-40.9 28.1-51.5 5.9-3.5 18.3-8.2 19.6-7.5.3.3.9 1.9 1.3 3.6zM242.7 260c8.6 4.9 16.6 13.1 19.8 20.2 5.3 11.7 4.3 31.4-2.1 42.4-5.6 9.6-18.9 16.4-32.2 16.4-5.6 0-13.9-1.7-14.7-3-.3-.5 1.9-3.3 4.9-6.3 4.4-4.4 5.8-6.6 7.5-12.2 1.2-3.7 2.1-7.8 2.1-9.1 0-1.8 1-2.7 4.3-4.2 5.6-2.5 10.7-6.9 10.7-9.3 0-2.6-.5-2.5-7.7 1.3-3.4 1.8-6.5 2.9-6.9 2.5-.4-.4-.8-2.9-.8-5.6 0-5.5 4.1-13.6 7.4-14.6 1.4-.4 2-1.5 2-3.3 0-3.1-3.3-10.8-5.7-13.4-.8-.9-1.3-2.4-1-3.3 1-2.4 6.7-1.8 12.4 1.5zm-15.6 5.1c.9 1.8.5 1.9-4.6 1.9-3 0-5.5-.2-5.5-.5s1.4-1.4 3.1-2.4c3.5-2.1 5.4-1.8 7 1zm.8 7.8c1.2.8 1 2.1-1.6 7.8-2.8 6.1-3.2 8.1-3.6 18.8-.3 10.4-.8 12.8-3.1 17.7-1.5 3.1-4.2 7-6.1 8.7-7.9 6.9-23.7 8.1-31.5 2.3-2.3-1.7-5.2-4.4-6.5-6.2-2.6-3.5-5-8.8-4.3-9.5.2-.2 2.3.5 4.6 1.6 4.7 2.3 7.2 2 7.2-1 0-1.3-1.5-2.7-4.5-4.2-6-3-7.9-5.2-7.1-8.3l.6-2.5 6.6 3c3.6 1.7 7.6 2.9 8.7 2.7 3.1-.4 3.4-3.6.5-4.7-5.4-2-11.8-5.4-11.8-6.1 0-1.7 6.9-5 10.4-5 2 0 6.2.9 9.4 2.1 8.2 3 10.1 3.3 10.6 1.8.2-.8 1.2-3.9 2.1-6.9 1.9-6.2 4.6-9.6 9-11.6 3.5-1.5 8.4-1.8 10.4-.5zM177 274c0 .5-.4 1-1 1-.5 0-1-.5-1-1 0-.6.5-1 1-1 .6 0 1 .4 1 1zm.8 7.3 2.2 1.3-2.9 2.2c-3.9 2.8-4.1 2.8-4.1-.6 0-4.4 1-5 4.8-2.9zM203 285c0 .5-.7 1-1.6 1-.8 0-1.2-.5-.9-1 .3-.6 1-1 1.6-1 .5 0 .9.4.9 1z"/><path d="M145 112.6c-14 2.6-17.5 3.8-17.8 6.2-.4 2.8.7 2.8 13.4.2 5.5-1.2 14-2.4 18.9-2.8 8.3-.6 9-.9 9.3-3 .3-2.1.1-2.2-8-2.1-4.6 0-11.7.7-15.8 1.5zM147 121.8c-7.5 2.3-9.5 3.6-8.6 5.7.5 1.3 1.3 1.6 3.4 1.1 1.5-.4 6.5-1.5 11.2-2.5 7.3-1.5 8.5-2 8.8-3.9.3-2-.1-2.2-4.5-2.1-2.6 0-7.3.8-10.3 1.7zM183.3 139.4c-6.4 3.1-14.3 10.2-19.3 17.6-4.9 7.3-13 22.3-13 24.1.1 2.1 5.1 6.6 9.4 8.4 8.7 3.7 27.9 2.7 43.1-2.2 8.1-2.6 20.1-9 22.5-12 1.8-2.3 2.1-3.8 1.8-8.3-.6-7.2-3.1-12.4-9.3-18.6-10.4-10.5-24.5-14.1-35.2-9zm12.3 12.4c0 7.2.5 9.7 2.8 14.6 1.4 3.3 3.8 7.5 5.2 9.3 1.4 1.8 2.3 3.7 1.9 4.2-.7 1.2-16.1 4.7-24.2 5.6-9.5 1-18.1-.2-21-3.1l-2.4-2.4 2.7-5.2c3.6-7.1 11-18.7 14.3-22.1 5.3-5.7 12.5-9.6 18.1-9.7 2.5 0 2.5.1 2.6 8.8zM86.5 140.6c-4.8 1.7-11.5 6.9-11.5 8.9 0 .8.9 1.9 1.9 2.4 1.5.8 2.5.6 4.6-1.1 1.6-1.2 5.1-2.9 7.9-3.8 5.3-1.8 6.8-3.9 4.6-6.5-1.5-1.8-2.3-1.8-7.5.1zM90.7 149.2c-11.5 3.1-16 19.5-8.6 31.4 5.9 9.6 25.2 13.8 44.6 9.8 9.3-2 11.3-3.7 11.3-10.2 0-6.3-3.4-12.4-10.8-19.3-7.3-6.9-11.8-9.3-20.4-11.4-7.1-1.7-10.6-1.7-16.1-.3zm19.1 7.4c2.8 1.1 3.2 1.7 2.6 3.6-1.2 3.9-.6 12.5 1.1 15.9 1 1.9 2.9 4.6 4.3 6.1l2.5 2.7-2.8.7c-5.1 1.3-18.1-.2-23-2.7-6.6-3.3-8.9-6.9-9.3-14.9-.3-5.5-.1-6.9 1.8-9.2 1.2-1.5 3.6-3.2 5.3-3.7 3.9-1.2 13-.4 17.5 1.5zM231.3 174.7c-1.9.7-1.5 4.8.6 6.7 2.6 2.3 6.5 1.7 6.9-1 .2-1.4-.7-2.9-2.4-4.3-2.8-2.2-3.1-2.3-5.1-1.4zM223.3 181.7c-1 2.7 3 8.7 6.1 9.1 3.8.5 4.3-2.1 1.2-6.8-2.8-4.2-6.2-5.3-7.3-2.3zM145.5 196.7c-13.8 1-39 4.4-39.8 5.2-1.3 1.3 1.9 13.1 5.5 20.4 7 14.2 17.9 21 43.8 27.5 9 2.2 12.7 2.6 26 2.6 22.4 0 28.5-2.3 41.8-15.5 7.5-7.5 11.2-14.6 11.9-22.8.8-8.1-.7-10.3-8.4-12.4-10.3-2.9-65.1-6.3-80.8-5zm49.8 8.2c1.1 1.1-3.4 4.3-12 8.3-6.4 3.1-7.4 3.3-18.3 3.3-9.4 0-12.8-.4-18.6-2.3-6.6-2.2-14.4-7.2-14.4-9.2 0-.5 3-1.1 6.8-1.3 11-.7 55.5.2 56.5 1.2zM271.3 205.9c-6.7 1.9-9.3 3.5-9.3 5.8 0 2.2 2.8 2.7 6.8 1 2-.9 5.6-2.1 8-2.7 3.6-.9 4.3-1.5 4-3.3-.4-2.8-2-3-9.5-.8z"/>
        </symbol>

		<symbol id="cke4-icon-emoji-4" viewBox="0 0 3000 3000">
            <path fill="#8915ED" d="M880.867 2524.502c-279.844-154.617-461.898-458.225-503.828-775.041-41.828-316.932 46.668-642.767 210.375-917.354 99.074-166.005 242.637-290.899 422.813-360.741 130.051-50.343 263.246-82.693 402.555-81.459 334.996 2.729 709.191 36.702 930.434 288.214 136.641 155.479 231.066 350.072 266.102 554.071 36.875 215.586 17.98 453.658-16.855 669.646-34.605 215.901-133.969 428.473-306.797 562.643-95.398 74.093-208.949 121.478-324.973 155.307-341.802 99.479-653.505 133.884-1079.826-95.286"/><path d="M1853.746 1780.246c-157.086 83.828-342.547 99.91-512.156 47.299-59.789-18.523-85.348 74.982-25.902 93.478 194.363 60.192 407.68 38.539 586.879-57.12 55.081-29.351 6.031-113.007-48.821-83.657M1847.516 1140.696c19.5 116.997 4.91 212.37-15.535 329.224-7.383 42.876-28.375 94.941-71.738 96.55-52.613 1.953-71.711-68.119-73.402-120.846l-6.637-191.146c-.945-29.925-1.922-60.997 8.875-88.969 10.969-27.827 34.836-78.816 64.73-78.17 29.926.589 54.535 0 79.492 28.201M1486.559 1140.696c19.527 116.997 4.766 212.37-15.68 329.224-7.379 42.876-28.203 94.941-71.738 96.55-52.609 1.953-71.535-68.119-73.461-120.846-2.066-63.581-4.336-127.393-6.605-191.146-.945-29.925-1.895-60.997 9.074-88.969 10.801-27.827 34.836-78.816 64.73-78.17 29.926.589 54.336 0 79.32 28.201"/><path fill="#6803EA" d="M920.109 2453.253c-406.344-230.146-556.066-725.158-460.363-1164.429 48.52-223.239 147.324-461.613 311.332-625.234 165.875-165.631 413.426-252.876 645.668-254.671 208.75-1.407 427.727 11.817 625.133 85.465 217.25 81.186 364.691 256.926 458.195 465.016 105.25 234.311 108.438 496.247 81.188 747.588-24.785 229.6-78.547 461.354-245.453 631.652-170.699 174.03-444.586 244.619-680.617 271.901-260.044 30.182-505.727-35.782-735.083-157.288-55.078-29.148-104.102 54.535-48.82 83.828 224.648 118.949 468.605 192.87 724.684 175.754 228.254-15.221 486.598-75.069 679.844-201.084 203.063-132.505 325.516-355.27 371.695-589.465 53.188-270.926 73.805-571.316-.918-839.974-64.559-231.926-203.668-468.807-410.727-599.876-195.684-123.774-436.051-156.498-662.809-166.794-256.051-11.473-517.039 23.262-735.297 168.79-209.671 139.987-337.523 364.633-420.128 598.096-184.441 522.653-55.641 1166.052 453.656 1454.553 54.32 30.671 103.141-52.986 48.82-83.828"/><path fill="#FFF" d="M681.836 1219.642c30.473-200.825 153.859-378.532 333.273-474.78 54.922-29.608 6.059-113.278-48.992-83.756-198.945 106.96-343.711 309.249-377.801 532.805-3.961 25.903 6.535 52.123 33.887 59.59 22.902 6.26 55.672-7.754 59.633-33.859M624.387 1502.945c62.348 0 62.547-96.895 0-96.895-62.36.001-62.547 96.895 0 96.895"/>
		</symbol>

		<symbol id="cke4-icon-emoji-5" viewBox="0 0 3000 3000">
            <path fill="#8915ED" d="M624.846 1403.446c-51.375-24.143-87.17-75.819-98.295-131.489-11.115-55.662.772-114.45 26.602-164.996 15.608-30.567 39.6-54.39 70.732-68.858 22.428-10.428 45.686-17.709 70.394-19.122 59.372-3.41 126.083-1.742 168.208 40.26 26.036 25.952 45.026 59.326 53.607 95.073 9.071 37.773 8.459 80.181 4.823 118.858-3.637 38.677-18.783 77.486-47.824 103.278-16.042 14.243-35.616 23.992-55.765 31.321-59.429 21.598-114.27 31.329-192.482-4.325"/><path d="M786.61 1214.175c-28.155 24.096-63.706 32.065-98.04 22.664-12.096-3.315-14.497 20.384-2.449 23.682 39.336 10.776 80.114.848 112.264-26.677 9.872-8.45-1.894-28.118-11.775-19.669"/><path fill="#FFF" d="M570.229 1233.768c.66 5.954-3.636 11.304-9.589 11.963-5.953.659-11.313-3.636-11.973-9.59-.649-5.953 3.636-11.313 9.59-11.972 5.954-.64 11.313 3.646 11.972 9.599"/><path fill="#6803EA" d="M625.109 1403.21c-74.698-36.068-106.961-122.051-95.148-200.988 6.019-40.138 20.761-83.534 47.908-114.45 27.459-31.264 70.309-49.614 111.445-52.609 36.991-2.704 75.96-2.892 111.774 7.866 39.44 11.85 67.643 41.268 86.604 77.053 21.383 40.316 25.019 86.68 23.106 131.537-1.752 40.957-8.544 82.677-36.152 114.799-28.222 32.837-75.933 48.511-117.437 56.104-45.73 8.363-90.05-.463-132.1-19.312-10.098-4.531-17.813 10.861-7.696 15.392 41.192 18.481 85.296 28.749 130.501 22.73 40.26-5.36 85.353-18.962 118.123-43.538 34.43-25.838 53.561-66.739 58.986-108.798 6.283-48.625 6.443-102.091-9.919-148.822-14.139-40.363-41.569-80.708-79.775-101.526-36.097-19.659-79.098-22.673-119.395-21.844-45.517.933-91.344 10.126-128.307 38.461-35.56 27.251-55.604 68.557-67.492 110.889-26.63 94.734 3.702 207.262 97.277 252.449 9.995 4.822 17.682-10.57 7.697-15.393"/><path fill="#FFF" d="M572.415 1200.95c3.09-35.955 22.881-68.868 53.532-88.027 9.401-5.869-.235-20.13-9.636-14.252-34.015 21.251-57.319 58.789-60.758 98.803-.396 4.625 1.762 9.156 6.697 10.174 4.137.847 9.76-2.035 10.165-6.698"/><path d="M818.656 1157.573c-8.421 15.146-19.979 23.125-34.523 32.573-5.351 3.476-13.63 5.991-20.469-.019-8.289-7.281-4.38-17.379.48-23.201l17.634-21.138c2.77-3.307 5.651-6.697 10.051-8.12 4.398-1.394 13.046-3.372 17.596.942 4.56 4.323 8.384 7.743 9.477 14.299M725.495 1164.063c-8.421 15.146-19.979 23.125-34.523 32.573-5.341 3.476-13.63 5.991-20.469-.019-8.289-7.282-4.38-17.379.48-23.201l17.634-21.138c2.77-3.307 5.651-6.697 10.051-8.11 4.398-1.404 13.065-3.382 17.605.933 4.55 4.323 8.384 7.743 9.476 14.299"/><path d="M700.947 1131.433c-1.243-2.939-.264-.537-.047.132.226.659.424 1.318.612 1.997.357 1.337.612 2.704.81 4.088-.112-.857-.235-1.715-.349-2.572.396 3.127.387 6.246-.019 9.363.123-.848.235-1.705.358-2.562-.207 1.385-.462 2.75-.819 4.098-.349 1.337-.989 2.628-1.291 3.966.641-1.498.763-1.79.349-.867-.142.311-.282.641-.434.942-.301.622-.631 1.234-.979 1.837-.688 1.215-1.47 2.364-2.298 3.494-1.404 1.856-1.564 5.275-.971 7.423.612 2.232 2.346 4.663 4.428 5.765 2.241 1.177 4.954 1.771 7.432.97 2.543-.819 4.183-2.308 5.774-4.437 4.606-6.17 6.933-13.574 7.818-21.147.904-7.696-.744-15.166-3.721-22.23-.867-2.063-3.721-3.872-5.765-4.437-2.309-.631-5.389-.349-7.433.979-2.063 1.337-3.881 3.297-4.437 5.765-.619 2.704-.092 4.899.982 7.433M795.446 1122.295c.641 1.799 1.093 3.646 1.375 5.539-.113-.857-.235-1.714-.349-2.563.349 2.572.349 5.153.028 7.734.113-.857.235-1.705.349-2.562-.358 2.571-1.026 5.067-2.016 7.47.32-.772.649-1.535.97-2.308-.763 1.752-1.667 3.419-2.76 5.002-1.347 1.978-1.573 5.19-.961 7.432.612 2.232 2.346 4.663 4.428 5.765 2.241 1.177 4.954 1.771 7.441.97 2.486-.801 4.276-2.271 5.765-4.437 6.443-9.392 8.148-22.429 4.343-33.167-.857-2.393-2.195-4.456-4.437-5.765-2.063-1.215-5.115-1.724-7.433-.961-2.336.744-4.587 2.186-5.765 4.408-1.166 2.216-1.835 5.013-.978 7.443"/><path fill="red" d="m632.052 802.43-45.29 249.34c-2.299 12.623 8.892 23.578 21.468 21.016l184.504-37.575c12.585-2.563 18.595-17.021 11.539-27.751L665.067 795.714c-8.995-13.687-30.086-9.392-33.015 6.716"/><path fill="none" stroke="#E80505" stroke-miterlimit="10" stroke-width="2" d="m632.052 802.43-45.29 249.34c-2.299 12.623 8.892 23.578 21.468 21.016l184.504-37.575c12.585-2.563 18.595-17.021 11.539-27.751L665.067 795.714c-8.995-13.687-30.086-9.392-33.015 6.716z"/><path fill="#FFF" d="M1037.91 834.118 433.7 894.31l-81.395-24.331 604.209-60.192zM1037.91 914.374 433.7 974.566l-81.395-24.322 604.209-60.192zM1037.91 994.63l-604.21 60.192-81.395-24.322 604.209-60.182z"/><path fill="none" d="m639.907 836.105-37.208 204.832c-2.288 12.632 8.902 23.578 21.468 21.025l151.582-30.878c12.585-2.563 18.595-17.003 11.539-27.741L672.934 829.389c-3.693-5.604-9.401-8.186-15.053-8.195-8.167 0-16.231 5.398-17.974 14.911"/><g opacity=".5"><defs><path id="a" d="M951.427 502.007h609.796v609.786H951.427z"/></defs><clipPath id="b"><use xlink:href="#a" overflow="visible"/></clipPath><g clip-path="url(#b)"><defs><path id="c" d="M1561.223 806.904c0 168.387-136.511 304.888-304.897 304.888-168.396 0-304.898-136.501-304.898-304.888 0-168.396 136.502-304.897 304.898-304.897 168.386 0 304.897 136.501 304.897 304.897"/></defs><clipPath id="d"><use xlink:href="#c" overflow="visible"/></clipPath><radialGradient id="e" cx="686.5078" cy="2057.5857" r="9.6458" gradientTransform="matrix(31.6092 0 0 -31.6092 -20443.6348 65845.4844)" gradientUnits="userSpaceOnUse"><stop offset="0" style="stop-color:#fccd06"/><stop offset=".4786" style="stop-color:#fee684"/><stop offset=".8382" style="stop-color:#fff8dc"/><stop offset="1" style="stop-color:#fff"/></radialGradient><path fill="url(#e)" d="M951.418 502.007h609.805v609.786H951.418z" clip-path="url(#d)"/></g></g><path fill="#FF5757" d="M1385.422 984.833c0 103.062-57.215 154.163-127.807 154.163s-127.807-51.102-127.807-154.163c0-103.07 127.807-219.084 127.807-219.084s127.807 116.014 127.807 219.084"/><path fill="none" stroke="red" stroke-miterlimit="10" stroke-width="3" d="M1385.422 984.833c0 103.062-57.215 154.163-127.807 154.163s-127.807-51.102-127.807-154.163c0-103.07 127.807-219.084 127.807-219.084s127.807 116.014 127.807 219.084z"/><path fill="#FFF9C5" d="M1298.516 1044.197c0 32.988-18.303 49.34-40.9 49.34s-40.91-16.353-40.91-49.34c0-32.988 40.91-70.13 40.91-70.13s40.9 37.141 40.9 70.13"/><path fill="none" stroke="#FFDC31" stroke-miterlimit="10" stroke-width="3" d="M1298.516 1044.197c0 32.988-18.303 49.34-40.9 49.34s-40.91-16.353-40.91-49.34c0-32.988 40.91-70.13 40.91-70.13s40.9 37.141 40.9 70.13z"/><path fill="#D3D3D3" d="M1257.615 1186.283c-5.322 0-9.646-4.314-9.646-9.646v-57.875c0-5.322 4.323-9.646 9.646-9.646s9.646 4.323 9.646 9.646v57.875c0 5.332-4.323 9.646-9.646 9.646"/><path fill="#FC9142" d="M1767.637 1370.967c-69.019-79.399-138.046-158.807-207.074-238.215-9.853-11.332-19.753-22.711-31.264-31.895-2.977-2.374-6.434-4.682-10.493-3.693-8.836 2.148-11.813 16.014-12.076 25.979-5.821-5.868-16.814-4.286-23.7 3.42-6.896 7.705-8.647 20.365-3.777 27.317-5.756-1.78-12.095-3.504-18.35-.358-8.883 4.465-13.687 17.342-12.65 27.261 1.008 9.919 6.292 17.53 11.388 24.765 77.129 109.447 148.116 225.065 212.528 346.194 2.76 5.181 6.659 10.918 12.557 9.43 2.383-.604 4.625-2.337 6.734-4.089 30.05-24.952 50.999-62.085 69.961-98.267 7.168-13.658 14.365-27.826 16.814-42.53 2.448-14.705 7.129-22.439-10.598-45.319"/><path fill="#E26600" d="M1788.831 1362.517c-38.733-44.555-77.458-89.101-116.192-133.656-19.226-22.127-38.461-44.254-57.695-66.371-18.199-20.931-35.531-43.396-55.718-62.453-5.784-5.473-12.246-11.888-19.961-14.459-8.157-2.723-16.691-.782-23.172 4.729-9.797 8.317-12.415 22.419-12.867 34.618l24.688-10.23c-13.121-11.662-32.432-9.203-44.159 3.419-10.795 11.615-14.657 30.944-6.048 44.857 5.454-7.093 10.898-14.177 16.344-21.27-8.667-2.609-17.445-3.683-26.046-.358-7.903 3.071-14.12 9.26-17.982 16.758-7.536 14.601-6.5 30.708.857 45.158 3.382 6.641 8.12 12.622 12.377 18.717 5.162 7.357 10.287 14.742 15.383 22.146 9.363 13.612 18.604 27.289 27.751 41.042 37.679 56.669 73.559 114.553 107.592 173.483 19.479 33.722 38.348 67.794 56.641 102.175 3.683 6.896 13.244 9.024 19.8 5.191 6.98-4.079 8.883-12.877 5.19-19.791-59.08-111.031-124.321-218.774-195.817-322.259-5.105-7.385-10.248-14.761-15.41-22.108-3.749-5.322-8.092-10.757-10.032-17.059-1.61-5.219-.895-9.457 1.403-13.526 1.103-1.932.999-1.687.462-.989.49-.631 3.193-2.478 1.573-1.903 2.703-.98 5.85.415 8.563 1.234 11.963 3.608 22.946-10.597 16.343-21.26-1.385-2.232-.367.65-.828-1.903.367 2.035.094-2.298.112-2.506-.16 1.451.819-2.75.839-2.788-.17.424 1.347-2.487 1.554-2.77.933-1.271 1.988-1.592 3.41-2.402.509-.113 1.026-.235 1.535-.348-.424.245-.838.282-1.262.084-.933-.245-.612-.16.933.236-.584-.113-1.093-.377-1.536-.792 9.439 8.374 24.219 2.637 24.708-10.239.16-4.324.132-5.153 1.555-9.891.499-1.657.414-.951 1.535-3.306-.913 1.921-.433.056.302-.16.019 0-6.095 2.807-5.736 1.328-.123.499 9.692 8.299 10.483 9.08 4.343 4.192 8.459 8.61 12.491 13.112 17.332 19.349 34.137 39.177 51.168 58.77 35.051 40.308 70.092 80.624 105.124 120.931l59.269 68.189c5.134 5.906 15.213 5.256 20.479 0 5.847-5.85 5.131-14.544-.003-20.46"/><path fill="#FC9142" d="M1767.637 1370.967c-69.019-79.399-138.046-158.807-207.074-238.215-9.853-11.332-19.753-22.711-31.264-31.895-2.977-2.374-6.434-4.682-10.493-3.693-8.836 2.148-11.813 16.014-12.076 25.979-5.821-5.868-16.814-4.286-23.7 3.42-6.896 7.705-8.647 20.365-3.777 27.317-5.756-1.78-12.095-3.504-18.35-.358-8.883 4.465-13.687 17.342-12.65 27.261 1.008 9.919 6.292 17.53 11.388 24.765 77.129 109.447 148.116 225.065 212.528 346.194 2.76 5.181 6.659 10.918 12.557 9.43 2.383-.604 4.625-2.337 6.734-4.089 30.05-24.952 50.999-62.085 69.961-98.267 7.168-13.658 14.365-27.826 16.814-42.53 2.448-14.705 7.129-22.439-10.598-45.319"/><path fill="#E26600" d="M1788.831 1362.517c-38.733-44.555-77.458-89.101-116.192-133.656-19.226-22.127-38.461-44.254-57.695-66.371-18.199-20.931-35.531-43.396-55.718-62.453-5.784-5.473-12.246-11.888-19.961-14.459-8.157-2.723-16.691-.782-23.172 4.729-9.797 8.317-12.415 22.419-12.867 34.618l24.688-10.23c-13.121-11.662-32.432-9.203-44.159 3.419-10.795 11.615-14.657 30.944-6.048 44.857 5.454-7.093 10.898-14.177 16.344-21.27-8.667-2.609-17.445-3.683-26.046-.358-7.903 3.071-14.12 9.26-17.982 16.758-7.536 14.601-6.5 30.708.857 45.158 3.382 6.641 8.12 12.622 12.377 18.717 5.162 7.357 10.287 14.742 15.383 22.146 9.363 13.612 18.604 27.289 27.751 41.042 37.679 56.669 73.559 114.553 107.592 173.483 19.479 33.722 38.348 67.794 56.641 102.175 3.683 6.896 13.244 9.024 19.8 5.191 6.98-4.079 8.883-12.877 5.19-19.791-59.08-111.031-124.321-218.774-195.817-322.259-5.105-7.385-10.248-14.761-15.41-22.108-3.749-5.322-8.092-10.757-10.032-17.059-1.61-5.219-.895-9.457 1.403-13.526 1.103-1.932.999-1.687.462-.989.49-.631 3.193-2.478 1.573-1.903 2.703-.98 5.85.415 8.563 1.234 11.963 3.608 22.946-10.597 16.343-21.26-1.385-2.232-.367.65-.828-1.903.367 2.035.094-2.298.112-2.506-.16 1.451.819-2.75.839-2.788-.17.424 1.347-2.487 1.554-2.77.933-1.271 1.988-1.592 3.41-2.402.509-.113 1.026-.235 1.535-.348-.424.245-.838.282-1.262.084-.933-.245-.612-.16.933.236-.584-.113-1.093-.377-1.536-.792 9.439 8.374 24.219 2.637 24.708-10.239.16-4.324.132-5.153 1.555-9.891.499-1.657.414-.951 1.535-3.306-.913 1.921-.433.056.302-.16.019 0-6.095 2.807-5.736 1.328-.123.499 9.692 8.299 10.483 9.08 4.343 4.192 8.459 8.61 12.491 13.112 17.332 19.349 34.137 39.177 51.168 58.77 35.051 40.308 70.092 80.624 105.124 120.931l59.269 68.189c5.134 5.906 15.213 5.256 20.479 0 5.847-5.85 5.131-14.544-.003-20.46"/><path fill="#FC9142" d="M2340.592 1419.874c62.48-45.968 144.131-64.968 220.487-51.319 76.375 13.649 146.382 59.769 189.063 124.538-20.007-2.543-40.015-5.105-60.013-7.64 29.521 5.407 55.144 28.374 63.715 57.131l-59.721-5.322c22.768 9.42 40.562 30.049 46.533 53.957-47.701 2.76-90.1-58.431-135.493-22.212-10.456 8.336-17.332 20.347-21.016 33.194-36.351 126.733-68.34 260.069-147.993 365.777-75.244 99.859-205.633 169.819-325.715 134.957-37.029-10.748-79.455-30.266-108.854 4.955-14.639 17.549-19.254 41.352-15.26 63.865 7.111 40.119 13.159 114.007-42.135 123.275-13.018 2.167-26.394-.357-38.649-5.209-60.267-23.803-119.894-49.208-178.786-76.187-10.361-4.738-18.727-13.885-20.535-25.132-4.605-28.758 35.823-37.942 63.885-34.269 27.958 3.664 54.126-.368 55.821-29.107.923-15.401-9.561-29.21-23.879-34.946-32.338-12.972-90.278-40.723-120.751-52.949-11.897-4.775-25.104-6.518-37.443-3.005-55.134 15.675-14.874 94.414-71.091 109.929-12.679 3.504-26.281 1.62-38.404-3.457-54.635-22.946-108.025-48.822-159.872-77.506-18.34-10.145-13.932-37.773 6.707-41.503 17.408-3.155 35.296-3.684 52.845-1.46 9.241 1.168 19.452 2.873 27.195-2.299 6.207-4.145 9.108-11.661 11.416-18.764 8.771-26.95 14.45-54.908 16.89-83.157 3.278-37.839.754-76.178 6.754-113.696 6.01-37.66 20.441-73.455 36.482-108.063 72.325-156.112 179.898-297.343 224.246-463.592 4.767-17.869 8.516-37.933-.593-54.032-6.114-10.804-17.013-17.859-27.384-24.68-86.313-56.688-164.487-125.763-231.357-204.445 69.828-38.131 152.92-39.375 231.904-48.945 29.417-3.561 60.719-9.382 81.876-30.125 11.389-11.162 18.755-25.678 25.923-39.911 29.031-57.649 65.363-108.157 94.396-165.806l16.239-32.677c27.543-99.396 80.124-191.738 151.563-266.126 5.181-5.397 11.935-11.162 19.216-9.438 23.823 106.999 42.267 229.794 25.047 338.046l82.866 27.741c63.093-79.597 150.263-172.89 229.36-236.595 14.29 184.099-49.237 364.261-76.121 546.956-25.254 171.526-12.952 206.51-39.364 389.253"/><path fill="#FFF" d="M1835.93 1746.22c126.29-126.422 245.478-265.825 310.22-432.375 8.779-22.579 16.616-46.175 15.929-70.394-1.356-47.532-35.983-88.922-77.317-112.434-41.343-23.502-89.035-32.592-135.493-42.699-124.303-27.044-315.899-90.081-445.478-140.288-1.017.537-2.091.923-3.117 1.47 66.88 78.692 145.044 147.767 231.357 204.455 10.381 6.811 21.279 13.865 27.383 24.67 9.118 16.099 5.36 36.162.594 54.041-44.348 166.239-151.921 307.479-224.246 463.592-12.962 27.967-24.623 56.764-31.896 86.643 78.862 28.899 193.444 56.16 247.513 30.124 32.517-15.665 59.033-41.267 84.551-66.805M2691.41 1534.833l59.721 5.322c-8.571-28.759-34.193-51.724-63.715-57.131 19.998 2.543 40.006 5.096 60.013 7.64-42.681-64.771-112.688-110.889-189.063-124.538-9.278-1.658-18.642-2.798-28.033-3.504-22.005 22.004-52.788 53.787-69.112 69.489 25.706-5.539 52.43-6.33 78.429-2.336 4.267.66 9.419 2.271 10.22 6.528.697 3.674-2.421 6.886-5.397 9.155-17.078 12.98-41.136 22.052-45.432 43.049l57.979 2.883c6.98.339 16.607 4.408 14.064 10.908-1.056 2.694-3.947 4.098-6.5 5.436-12.688 6.669-22.89 17.944-28.278 31.235 14.535 1.084 29.051 2.157 43.566 3.24 4.229.32 9.401 1.376 10.541 5.445.961 3.362-1.563 6.622-3.834 9.287-13.847 16.277-24.51 35.221-31.255 55.492-.81 2.449-1.328 5.689.829 7.111 1.742 1.149 4.06.245 5.943-.688 5.389-2.675 10.796-5.341 16.193-8.016 1.055-3.692 2.091-7.395 3.146-11.068 3.684-12.849 10.56-24.858 21.016-33.195 45.384-36.219 87.792 24.972 135.493 22.212-5.964-23.907-23.766-44.546-46.534-53.956"/><path fill="#E5C1A1" d="m2508.14 1363.384-60.813 58.439c-10.945 10.531.565 27.017 14.083 24.19 14.685-3.08 29.54-4.503 44.545-4.305 7.725.104 15.468.565 23.145 1.536 1.771.226 5.784 1.884 7.423 1.469-2.411-.433-3.062-2.496-1.922-6.16.575-6-.272-7.526-2.533-4.587.988-.509-1.696 1.243-1.828 1.337-19.103 13.461-43.029 24.341-48.813 49.313-2.186 9.477 4.333 17.841 13.96 18.313 11.586.574 23.191 1.148 34.787 1.732 6.188.302 12.368.604 18.557.914.594.028 6.717.518 3.692.047.999.18 1.997.415 2.968.707 1.705.556 1.94.649.678.282-.594-.471-1.055-1.046-1.413-1.714 4.823-10.156 5.002-13.66.527-10.532-1.629.725-3.287 1.742-4.804 2.665-4.747 2.883-9.269 6.387-13.301 10.211-7.178 6.829-13.056 15.251-16.908 24.369-4.38 10.353.688 20.893 12.5 21.778 9.165.688 18.331 1.366 27.506 2.044 4.578.339 9.175.829 13.753 1.026l2.298.17c-1.187-.226-1.262-.226-.226-.019.725.132 1.44.311 2.129.565-2.506-3.137-4.314-6.557-5.436-10.268-1.884 1.018-4.663 5.473-6.33 7.648-2.478 3.222-4.898 6.48-7.168 9.854-4.626 6.848-8.732 14.054-12.293 21.515-6.472 13.545-20.488 42.144 3.155 48.03 9.288 2.318 18.199-3.946 26.225-7.771 6.5-3.1 13.019-6.161 19.48-9.345 7.018-3.457 8.948-13.395 5.189-19.8-4.173-7.141-12.754-8.657-19.79-5.19-5.229 2.581-10.484 5.096-15.75 7.583-2.308 1.093-4.625 2.185-6.914 3.287-1.159.556-2.317 1.121-3.477 1.687-.96.471-1.931.941-2.882 1.412-2.619 1.159-1.206 1.074 4.211-.272 2.128 1.233 4.248 2.478 6.377 3.721-.33-.349-.65-.706-.979-1.056 1.233 2.139 2.468 4.258 3.711 6.387.706 2.063-.819 4.691.49.65.424-1.31.895-2.6 1.385-3.899.876-2.384 1.789-4.748 2.816-7.065 2.646-5.981 5.708-11.803 9.052-17.417 3.033-5.077 6.302-10.069 9.9-14.771 4.211-5.5 9.646-10.437 11.549-17.332 2.053-7.432-.33-15.382-5.963-20.544-5.152-4.729-11.774-5.888-18.463-6.528-14.478-1.394-29.05-2.156-43.557-3.24 4.163 7.254 8.317 14.516 12.49 21.77 4.201-9.947 10.522-18.538 19.829-24.199 6.377-3.881 12.565-6.857 15.665-14.196 3.052-7.253 1.517-15.741-3.957-21.449-9.485-9.91-23.427-9.514-36.087-10.146-15.071-.744-30.152-1.488-45.224-2.241 4.644 6.104 9.297 12.207 13.95 18.321 1.291-5.586 2.854-7.97 6.914-11.973 4.333-4.276 8.233-6.801 13.923-10.475 13.093-8.459 35.192-18.952 29.785-38.122-2.496-8.873-10.786-14.148-19.396-15.844-9.4-1.846-19.244-2.59-28.814-2.977-19.462-.763-38.988 1.196-58.035 5.181l14.073 24.19c20.271-19.48 40.552-38.96 60.823-58.44 13.454-12.931-7.025-33.371-20.467-20.466"/><path fill="#E26600" d="M1963.963 638.856c22.504-80.614 64.948-155.19 118.066-219.555 7.366-8.92 14.949-17.671 22.739-26.243 4.088-4.503 8.232-8.968 12.453-13.367 1.762-1.837 3.504-3.918 5.566-5.454.5-.377 1.291-.697 1.725-1.14 1.215-1.196 3.419.066-.754-.584-3.363-3.373-6.735-6.735-10.098-10.107 18.312 82.479 32.347 166.606 29.992 251.375-.659 23.531-2.563 47.052-6.208 70.309-1.215 7.705 1.969 15.561 10.099 17.793 6.876 1.894 16.588-2.336 17.794-10.098 13.771-87.726 6.442-176.573-8.968-263.573-4.353-24.614-9.382-49.096-14.808-73.493-.98-4.437-5.464-9.392-10.107-10.107-14.535-2.261-24.935 4.437-34.693 14.619-7.743 8.073-15.27 16.353-22.616 24.784-15.43 17.709-30.021 36.153-43.736 55.209-26.47 36.746-49.473 76.111-67.596 117.643-10.56 24.162-19.649 48.898-26.752 74.303-5.011 17.964 22.89 25.631 27.902 7.686M2244.633 720.874c52.072-65.514 113.216-123.652 176.582-178.089 17.728-15.222 35.71-30.143 53.899-44.8-8.232-3.41-16.466-6.82-24.708-10.239 10.663 140.561-23.766 278.362-52.119 414.882-14.318 68.933-26.14 138.083-33.364 208.147-7.122 68.905-11.285 138.074-18.359 206.989-7.894 76.837-19.876 153.494-43.472 227.233-2.384 7.441 2.788 15.787 10.098 17.793 7.818 2.148 15.41-2.627 17.803-10.098 42.907-134.071 47.222-275.904 60.211-414.949 6.453-68.961 16.664-137.075 30.389-204.963 14.054-69.574 30.209-138.734 42.182-208.713 13.338-77.967 21.57-157.206 15.57-236.322-.998-13.169-14.789-18.208-24.698-10.221-65.128 52.496-128.146 108.242-184.891 169.819-15.806 17.153-31.066 34.806-45.582 53.062-4.86 6.113-5.963 14.497 0 20.469 5.039 5.039 15.57 6.151 20.459 0"/><path fill="#FFE8D7" d="M1534.272 973.144c109.984 44.442 222.993 81.339 338.046 110.201 28.532 7.159 57.196 13.668 85.917 20.026 27.308 6.057 54.663 12.405 80.943 22.127 42.483 15.722 85.965 44.941 102.11 88.441 8.977 24.181 6.961 47.928-.801 72.768-7.79 24.99-18.491 49.246-29.672 72.871-22.551 47.579-49.595 92.953-79.625 136.172-60.353 86.85-132.715 164.713-207.959 238.743-19 18.68-38.311 37.443-60.852 51.865-20.149 12.914-41.993 21.203-65.684 24.284-48.767 6.358-99.728-5.068-145.385-22.429-10.606-4.031-20.978-8.563-31.188-13.498-7.036-3.4-15.627-1.922-19.8 5.189-3.702 6.34-1.865 16.381 5.189 19.801 47.721 23.068 99.981 39.045 153.193 41.249 25.471 1.055 51.742-1.395 76.055-9.363 26.884-8.808 50.452-24.397 72.014-42.417 21.271-17.775 40.703-37.773 60.239-57.423 19.367-19.471 38.471-39.233 57.141-59.382 37.679-40.617 73.614-82.855 106.866-127.186 32.63-43.519 62.462-89.223 87.905-137.33 12.961-24.539 24.68-49.689 35.248-75.348 11.163-27.082 22.165-55.417 22.287-85.145.188-52.458-35.446-97.503-77.816-124.802-48.652-31.349-107.394-41.192-162.839-53.786-119.385-27.12-236.821-62.811-351.12-106.688-14.289-5.482-28.532-11.106-42.728-16.842-7.244-2.93-15.9 3.184-17.794 10.107-2.266 8.262 2.839 14.855 10.11 17.795"/><path fill="#E26600" d="M2045.641 699.906c76.243 4.927 152.054 23.191 222.005 54.013 20.402 8.986 40.325 19.019 59.739 29.964 16.249 9.156 30.85-15.825 14.61-24.981-70.271-39.628-147.522-67.068-227.166-80.039-22.918-3.74-46.016-6.396-69.188-7.894-7.809-.508-14.469 7.018-14.469 14.469 0 8.251 6.641 13.959 14.469 14.468"/><path fill="#4C260C" d="M1832.435 2123.443c-1.695 28.749-27.863 32.78-55.83 29.116-28.062-3.684-68.481 5.501-63.875 34.269 1.809 11.247 10.163 20.385 20.525 25.132 58.901 26.969 118.528 52.383 178.786 76.188 12.265 4.841 25.641 7.365 38.649 5.189 46.722-7.818 49.623-61.736 45.11-102.486l-163.47-70.752c.058 1.112.171 2.213.105 3.344M1467.741 2016.256c-7.743 5.172-17.964 3.467-27.204 2.289-17.549-2.223-35.438-1.695-52.836 1.46-20.629 3.74-25.065 31.368-6.716 41.513 51.847 28.674 105.247 54.56 159.881 77.487 12.114 5.086 25.726 6.971 38.395 3.466 52.214-14.421 21.326-83.271 60.805-105.585l-153.381-66.381c-2.214 9.07-4.645 18.095-7.536 26.978-2.308 7.102-5.201 14.628-11.408 18.773"/><path fill="#E26600" d="M1933.038 625.772c-33.507 66.438-70.262 131.179-103.824 197.588-8.337 16.503-16.843 33.958-32.818 44.376-15.129 9.872-33.026 14.017-50.65 16.843-39.506 6.349-79.71 8.167-119.366 13.621-45.695 6.274-90.797 16.937-131.679 38.951-8.77 4.719-8.713 15.938-2.93 22.721 44.565 52.289 93.934 100.404 147.494 143.434 27.167 21.826 55.275 42.455 84.354 61.671 11.624 7.687 25.32 15.354 27.779 30.36 2.581 15.712-3.57 32.62-7.885 47.494-37.66 130.039-112.989 244.31-176.62 362.461-16.305 30.285-32.008 60.908-46.166 92.248-14.911 33.016-28.315 67.134-34.08 103.07-6.066 37.877-4.013 76.196-6.989 114.309-1.423 18.123-4.324 36.068-8.544 53.758-2.082 8.676-4.446 17.285-7.14 25.791-1.63 5.153-2.986 13.169-9.091 14.507-6.547 1.441-14.609-.942-21.185-1.592-9.844-.971-19.763-1.093-29.615-.367-14.497 1.055-30.464 2.109-41.137 13.225-8.798 9.156-12.368 23.343-8.826 35.579 4.437 15.278 16.824 21.787 29.908 28.871 33.025 17.888 66.663 34.664 100.828 50.254 16.513 7.545 33.102 15.119 49.972 21.835 15.6 6.218 33.723 8.017 49.783 2.317 21.496-7.621 33.836-24.783 39.083-46.42 2.223-9.176 3.325-18.576 5.067-27.846.829-4.398 1.762-8.797 3.062-13.093 1.563-5.134 1.827-5.765 4.54-10.362 1.385-2.363 3.919-5.067 5.643-6.311 4.475-3.278 9.278-5.077 14.817-5.85 13.169-1.837 25.706 4.267 37.462 9.354 26.366 11.398 52.402 23.597 78.702 35.164 5.708 2.515 11.426 4.992 17.182 7.423 5.698 2.411 12.443 4.361 17.36 8.299 7.696 6.188 11.445 18.001 5.444 26.601-4.098 5.869-14.601 7.027-23.031 6.999-12.622-.057-24.82-2.694-37.48-1.432-23.022 2.261-51.563 11.851-56.076 37.971-2.6 15.053 3.824 30.614 15.241 40.543 13.15 11.436 31.829 17.134 47.561 24.133 34.692 15.439 69.611 30.341 104.737 44.726 31.218 12.782 65.957 32.074 100.179 18.849 45.47-17.577 48.653-73.493 43.812-114.968-2.939-25.227-9.175-50.669 8.232-72.617 17.842-22.504 45.809-16.079 69.734-8.92 28.146 8.421 55.369 16.089 84.985 17.135 29.474 1.035 59.334-3.278 87.604-11.605 57.94-17.088 110.672-50.584 153.683-92.681 45.742-44.781 79.653-100.593 105.727-158.694 27.543-61.369 47.193-125.753 65.57-190.344 4.531-15.957 9.024-31.942 13.536-47.899 4.098-14.46 6.905-30.257 17.804-41.391 17.973-18.368 39.771-10.852 59.984-.895 22.155 10.898 44.688 23.86 70.196 22.861 9.382-.367 16.456-8.948 13.96-18.312-7.348-27.478-26.959-51.253-53.202-62.604-2.431 8.977-4.861 17.973-7.291 26.969 19.913 1.771 39.816 3.541 59.73 5.322 9.25.828 16.598-9.929 13.95-18.313-10.625-33.647-38.979-60.296-73.832-67.248-1.28 9.476-2.562 18.952-3.843 28.429 19.998 2.543 40.006 5.086 60.013 7.63 10.852 1.385 18.124-13.32 12.5-21.769-69.649-104.597-201.224-157.95-324.038-128.844-35.438 8.394-68.98 24.143-98.39 45.535-6.311 4.597-9.419 12.575-5.189 19.8 3.646 6.226 13.441 9.815 19.79 5.19 48.757-35.475 106.726-52.147 166.88-49.02 55.728 2.901 109.307 22.4 153.881 55.991 24.181 18.228 45.309 40.769 62.076 65.948 4.163-7.253 8.327-14.506 12.49-21.769-20.007-2.544-40.015-5.087-60.013-7.63-16.107-2.054-19.763 25.244-3.844 28.419 24.963 4.974 45.874 22.514 53.608 47.023 4.662-6.104 9.307-12.208 13.96-18.312-19.914-1.781-39.817-3.552-59.73-5.322-13.848-1.244-20.375 21.298-7.31 26.959 19.781 8.563 34.287 24.35 39.892 45.309 4.654-6.104 9.308-12.217 13.951-18.321-23.682.933-44.32-14.186-65.118-23.417-24.077-10.682-50.565-15.515-73.785.32-28.881 19.668-34.297 54.22-43.161 85.625-9.024 32.037-18.086 64.073-28.052 95.827-37.453 119.366-91.353 241.54-199.962 312.226-48.258 31.405-104.682 51.855-162.801 50.104-28.721-.866-54.663-9.269-81.98-17.162-26.742-7.725-57.338-12.067-81.358 5.416-26.761 19.499-37.264 53.429-32.742 85.39 2.825 19.895 5.85 39.083 4.201 60.381-.632 8.327-2.666 18.999-5.681 26.102-3.551 8.337-8.223 14.497-15.363 18.661-10.691 6.244-24.529 6.132-36.821 2.608-17.804-5.096-35.107-13.47-52.224-20.487-34.806-14.271-69.386-29.117-103.721-44.499-8.374-3.749-16.757-7.489-25.084-11.351-6.02-2.779-12.34-5.831-15.241-12.218-3.749-8.251-.349-12.415 6.48-16.173 20.809-11.465 44.536-2.412 66.729-4.72 12.377-1.291 25.075-5.067 33.779-14.487 9.57-10.353 13.112-25.085 11.002-38.838-2.336-15.25-12.51-28.918-26.018-36.294-10.936-5.963-23.38-10.014-34.787-15.063-25.781-11.417-51.328-23.39-77.26-34.505-13.998-6-27.779-12.085-43.341-12.283-13.8-.169-27.741 4.041-38.648 12.557-16.4 12.802-21.308 32.979-24.539 52.524-1.535 9.241-3.052 18.406-5.803 27.374-1.912 6.18-6.245 12.764-11.511 16.023-10.917 6.763-24.792 5.943-37.02 1.375-16.993-6.32-33.553-14.355-50.009-21.93-34.128-15.693-67.709-32.555-100.678-50.546-4.164-2.279-10.014-4.39-12.001-8.129-.811-1.526-.735-5.407-.472-6.066 1.395-3.608 2.704-4.201 6.435-5.237 8.826-2.459 19.046-2.496 28.146-2.506 15.628-.028 33.139 5.661 48.38.726 18.029-5.841 23.889-23.635 28.787-40.081 10.7-35.993 15.193-73.069 16.314-110.503 1.131-37.415 1.602-74.161 11.926-110.437 9.636-33.883 24.548-65.995 40.053-97.522 59.514-121.128 136.359-233.421 186.105-359.354 12.113-30.689 24.218-62.876 30.35-95.384 3.108-16.447 3.684-33.676-3.966-49.03-7.677-15.373-22.419-24.746-36.294-33.911-56.706-37.481-109.674-80.379-158.261-127.92-23.662-23.182-46.241-47.447-67.718-72.664-.989 7.573-1.96 15.147-2.93 22.721 73.295-39.459 158.646-37.218 238.884-48.851 19.396-2.807 38.771-7.319 56.18-16.645 17.577-9.42 30.708-24.086 40.608-41.192 9.382-16.23 17.275-33.412 25.97-50.028 8.77-16.786 17.672-33.506 26.602-50.216 20.365-38.159 40.985-76.196 60.465-114.827 8.377-16.577-16.576-31.253-24.978-14.599"/><path d="M1480.872 942.84c40.241 45.233 83.449 88.046 128.956 128.438 31.208-58.138 60.286-117.407 86.529-177.929-75.479 6.368-150.093 16.164-215.485 49.491"/><path fill="none" stroke="#000" stroke-miterlimit="10" d="M1480.872 942.84c40.241 45.233 83.449 88.046 128.956 128.438 31.208-58.138 60.286-117.407 86.529-177.929-75.479 6.368-150.093 16.164-215.485 49.491z"/><path d="M2114.622 931.235c-6.058 28.806-18.049 49.51-33.299 74.68-5.605 9.25-15.119 19.376-25.292 15.816-12.321-4.305-10.399-22.193-6.066-34.533 5.237-14.921 10.484-29.842 15.722-44.762 2.468-7.018 5.049-14.252 10.088-19.725 5.021-5.473 15.147-15.081 22.005-12.255 6.867 2.835 12.575 4.908 15.815 13.706M2031.191 898.662c-6.048 28.815-18.039 49.519-33.299 74.689-5.596 9.241-15.109 19.367-25.292 15.815-12.312-4.305-10.39-22.202-6.066-34.532 5.247-14.931 10.484-29.852 15.722-44.772 2.468-7.018 5.059-14.242 10.088-19.725 5.04-5.473 15.157-15.081 22.015-12.246 6.857 2.826 12.565 4.889 15.806 13.706"/><path fill="#FF92B4" d="M2012.305 1135.304c-.594 20.742 4.615 41.607 14.883 59.646 4.842 8.469 10.946 16.504 19.142 21.797 25.791 16.673 63.074-1.601 75.226-29.804 12.151-28.202-7.489-74.331-19.339-102.646"/><path d="M2000.247 1135.304c-.791 42.087 22.843 105.718 74.85 99.388 20.44-2.496 38.668-14.187 50.641-30.803 12.264-17.031 13.14-37.292 9.824-57.338-3.759-22.758-12.867-44.311-21.722-65.467-2.506-6-7.979-10.306-14.827-8.421-5.661 1.564-10.945 8.789-8.421 14.836 6.679 15.966 13.329 32.008 17.954 48.719 3.956 14.28 7.762 31.471 2.194 45.469-4.841 12.17-16.691 22.758-29.22 27.016-13.847 4.7-26.677 2.242-36.859-9.448-14.808-16.984-20.724-41.946-20.299-63.951.283-15.523-23.832-15.523-24.115 0"/><path d="M2080.928 1145.882c-.924-1.45-1.648-3.023-2.327-4.615l1.215 2.892c-2.524-6.019-4.39-12.33-6.104-18.623-1.488-5.454-2.901-10.964-3.862-16.542-.48-2.807-3.175-5.821-5.539-7.206-2.59-1.517-6.386-2.147-9.297-1.215-2.911.951-5.728 2.75-7.196 5.548-1.602 3.024-1.8 5.925-1.225 9.288 1.205 6.952 3.042 13.838 5.011 20.61 1.111 3.806 2.299 7.593 3.674 11.313 1.356 3.636 2.741 7.432 4.823 10.72 3.391 5.313 10.889 7.95 16.503 4.323 5.322-3.437 7.941-10.794 4.324-16.493"/><path d="M2126.358 1030.302c-46.298 53.118-113.356 86.624-183.845 90.589-15.42.867-15.533 24.99 0 24.114 76.62-4.314 150.396-39.713 200.904-97.654 4.267-4.898 4.822-12.217 0-17.049-4.37-4.361-12.763-4.926-17.059 0"/><path fill="#FC9142" d="M2148.25 1498.811c91.635-51.667 183.289-103.334 274.943-155.001 13.084-7.376 26.224-14.78 40.146-19.574 3.599-1.244 7.63-2.251 11.125.038 7.602 4.993 5.773 19.046 2.665 28.532 7.461-3.58 17.276 1.592 21.194 11.172 3.9 9.561 1.319 22.08-5.595 26.997 6.01.245 12.565.744 17.407 5.803 6.857 7.197 7.065 20.94 2.779 29.936s-11.813 14.403-19.037 19.508c-109.363 77.251-214.996 162.387-316.296 254.908-4.323 3.966-9.929 8.063-14.986 4.672-2.045-1.356-3.57-3.739-4.974-6.104-19.951-33.581-27.232-75.583-32.97-116.031-2.176-15.27-4.201-31.029-1.582-45.705 2.62-14.678.812-23.533 25.181-39.151"/><path fill="#E26600" d="M2144.633 1509.315c91.654-51.678 183.289-103.373 274.943-155.012 11.199-6.311 22.475-12.999 34.617-17.379-.358.132 3.843-1.149 3.909-1.319-.217.565-5.643-4.116-4.229-3.212 1.554.999-.462 1.395.235.302.122.471.235.941.358 1.422-.123-1.102-.151-1.111-.076-.047.349 5.087-.48 7.621-2.129 12.896-3.042 9.702 7.461 22.014 17.794 17.794.82-.396 1.677-.688 2.572-.876-.584.282-1.168.33-1.752.15-.368-.188.479.227.593.292.509.292 1.884 1.338 2.572 3.118.895 2.327.81 5.068.668 5.925-.649 3.834-.518 3.278-3.127 5.369-4.408 3.523-5.077 11.068-3.005 15.807 2.393 5.426 7.3 8.619 13.226 8.901 3.089.142 3.137.123 6.122.811.82.188 1.253.866 1.356 1.158 1.366 3.392 1.545 7.018.387 11.125-.951 3.354-4.795 8.092-9.053 11.549-4.757 3.881-10.682 7.687-15.938 11.436-25.669 18.303-51.064 36.991-76.188 56.047-51.318 38.952-101.544 79.372-150.508 121.26-27.571 23.568-54.747 47.617-81.537 72.07-5.784 5.275-5.351 15.119 0 20.47 5.736 5.746 14.666 5.274 20.46 0 51.46-46.977 104.342-92.389 158.646-136.03 26.385-21.204 53.099-41.975 80.162-62.303 26.959-20.252 55.114-39.063 81.782-59.665 13.828-10.672 23.379-25.895 21.608-43.934-.895-9.043-4.088-17.935-11.021-24.143-7.366-6.613-16.682-8.336-26.28-8.789 3.419 8.233 6.829 16.465 10.239 24.699 12.792-10.221 14.346-30.511 7.847-44.537-6.198-13.404-22.721-23.86-37.52-17.813l17.794 17.794c3.438-10.974 5.04-23.729-.057-34.438-2.816-5.925-8.129-10.861-14.496-12.773-7.564-2.251-15.147-.019-22.212 2.76-26.319 10.343-50.594 25.98-75.15 39.827-50.726 28.589-101.451 57.187-152.176 85.785-28.674 16.174-57.366 32.338-86.05 48.512-16.217 9.146-1.654 34.156 14.614 24.991"/><path fill="#FC9142" d="M2148.25 1498.811c91.635-51.667 183.289-103.334 274.943-155.001 13.084-7.376 26.224-14.78 40.146-19.574 3.599-1.244 7.63-2.251 11.125.038 7.602 4.993 5.773 19.046 2.665 28.532 7.461-3.58 17.276 1.592 21.194 11.172 3.9 9.561 1.319 22.08-5.595 26.997 6.01.245 12.565.744 17.407 5.803 6.857 7.197 7.065 20.94 2.779 29.936s-11.813 14.403-19.037 19.508c-109.363 77.251-214.996 162.387-316.296 254.908-4.323 3.966-9.929 8.063-14.986 4.672-2.045-1.356-3.57-3.739-4.974-6.104-19.951-33.581-27.232-75.583-32.97-116.031-2.176-15.27-4.201-31.029-1.582-45.705 2.62-14.678.812-23.533 25.181-39.151"/><path fill="#E26600" d="M2144.633 1509.315c91.654-51.678 183.289-103.373 274.943-155.012 11.199-6.311 22.475-12.999 34.617-17.379-.358.132 3.843-1.149 3.909-1.319-.217.565-5.643-4.116-4.229-3.212 1.554.999-.462 1.395.235.302.122.471.235.941.358 1.422-.123-1.102-.151-1.111-.076-.047.349 5.087-.48 7.621-2.129 12.896-3.042 9.702 7.461 22.014 17.794 17.794.82-.396 1.677-.688 2.572-.876-.584.282-1.168.33-1.752.15-.368-.188.479.227.593.292.509.292 1.884 1.338 2.572 3.118.895 2.327.81 5.068.668 5.925-.649 3.834-.518 3.278-3.127 5.369-4.408 3.523-5.077 11.068-3.005 15.807 2.393 5.426 7.3 8.619 13.226 8.901 3.089.142 3.137.123 6.122.811.82.188 1.253.866 1.356 1.158 1.366 3.392 1.545 7.018.387 11.125-.951 3.354-4.795 8.092-9.053 11.549-4.757 3.881-10.682 7.687-15.938 11.436-25.669 18.303-51.064 36.991-76.188 56.047-51.318 38.952-101.544 79.372-150.508 121.26-27.571 23.568-54.747 47.617-81.537 72.07-5.784 5.275-5.351 15.119 0 20.47 5.736 5.746 14.666 5.274 20.46 0 51.46-46.977 104.342-92.389 158.646-136.03 26.385-21.204 53.099-41.975 80.162-62.303 26.959-20.252 55.114-39.063 81.782-59.665 13.828-10.672 23.379-25.895 21.608-43.934-.895-9.043-4.088-17.935-11.021-24.143-7.366-6.613-16.682-8.336-26.28-8.789 3.419 8.233 6.829 16.465 10.239 24.699 12.792-10.221 14.346-30.511 7.847-44.537-6.198-13.404-22.721-23.86-37.52-17.813l17.794 17.794c3.438-10.974 5.04-23.729-.057-34.438-2.816-5.925-8.129-10.861-14.496-12.773-7.564-2.251-15.147-.019-22.212 2.76-26.319 10.343-50.594 25.98-75.15 39.827-50.726 28.589-101.451 57.187-152.176 85.785-28.674 16.174-57.366 32.338-86.05 48.512-16.217 9.146-1.654 34.156 14.614 24.991"/><path fill="#E26600" d="M2332.934 1559.069c-3.024 117.201-34.279 234.062-89.318 337.547-15.599 29.323-33.147 57.583-52.618 84.495-4.578 6.339-1.093 16.126 5.19 19.8 7.3 4.268 15.203 1.158 19.79-5.181 70.827-97.946 117.163-214.242 136.182-333.43 5.454-34.165 8.807-68.642 9.711-103.231.48-18.632-28.458-18.613-28.937 0"/><path fill="#FFF" d="M2097.204 1731.423c0-192.794-375.894-349.086-839.589-349.086s-839.589 156.292-839.589 349.086c0 1.479.084 2.948.132 4.418h-.132v570.9c0 192.794 375.894 349.086 839.589 349.086s839.589-156.292 839.589-349.086v-570.9h-.132c.038-1.47.132-2.94.132-4.418"/><path fill="none" stroke="#EAEAEA" stroke-miterlimit="10" stroke-width="4" d="M2097.204 1731.423c0-192.794-375.894-349.086-839.589-349.086s-839.589 156.292-839.589 349.086c0 1.479.084 2.948.132 4.418h-.132v570.9c0 192.794 375.894 349.086 839.589 349.086s839.589-156.292 839.589-349.086v-570.9h-.132c.038-1.47.132-2.94.132-4.418z"/><path fill="#FFF" d="M2132.293 1690.069c-26.14-44.037-75.471-44.395-108.129-44.63-.659-.01-1.347-.01-2.063-.019-2.854-32.696-8.327-79.635-50.886-104.588-38.159-22.391-78.25-7.78-106.33 3.834-10.645-29.126-27.543-67.531-69.244-81.387-40.213-13.328-74.491 5.869-100.574 22.692-14.469-26.648-36.294-60.635-77.816-68.613-40.91-7.94-72.277 14.667-95.987 34.325-17.097-24.688-42.153-55.595-83.628-59.297-41.211-3.532-70.187 21.515-91.833 43.293-19.179-22.908-46.825-51.196-88.188-51.196-41.353 0-68.99 28.278-88.159 51.178-21.628-21.769-50.461-46.967-91.795-43.274-41.476 3.684-66.541 34.589-83.638 59.288-23.7-19.669-55.068-42.172-95.987-34.335-41.531 7.988-63.366 41.983-77.845 68.632-26.093-16.833-60.323-36.077-100.556-22.701-41.729 13.847-58.638 52.298-69.281 81.424-28.09-11.624-68.218-26.233-106.377-3.843-42.54 24.971-48.013 71.881-50.857 104.577-.716.01-1.403.01-2.054.019-32.658.236-81.989.594-108.129 44.621-29.747 50.113 1.403 98.719 19.292 125.66-17.889 26.939-49.039 75.546-19.292 125.658 26.14 44.037 75.471 44.387 108.129 44.621.659.01 1.347.01 2.063.02 2.845 32.705 8.317 79.635 50.885 104.587 38.169 22.391 78.25 7.78 106.33-3.834 10.645 29.126 27.543 67.53 69.244 81.396 40.213 13.32 74.491-5.877 100.565-22.691 14.478 26.648 36.304 60.625 77.825 68.613 40.9 7.932 72.269-14.667 95.978-34.326 17.097 24.689 42.163 55.586 83.638 59.298 41.212 3.532 70.187-21.515 91.833-43.293 19.179 22.899 46.825 51.187 88.188 51.187 41.353 0 68.99-28.278 88.159-51.178 21.628 21.779 50.462 46.967 91.795 43.284 41.466-3.684 66.541-34.599 83.638-59.288 23.7 19.659 55.068 42.172 95.987 34.326 41.531-7.988 63.366-41.984 77.845-68.623 26.093 16.823 60.333 36.068 100.556 22.701 41.729-13.856 58.646-52.289 69.282-81.424 28.089 11.614 68.217 26.234 106.377 3.844 42.539-24.973 48.012-71.883 50.856-104.588.716-.01 1.403-.01 2.054-.019 32.658-.235 81.989-.575 108.129-44.621 29.747-50.113-1.403-98.719-19.292-125.649 17.889-26.951 49.039-75.557 19.292-125.661m-207.95 188.64c-23.851 20.714-30.585 48.55-33.638 74.039-25.404-9.25-55.802-15.957-86.755-2.524-32.47 14.092-47.335 43.5-57.188 69.217-24.218-14.827-54.644-28.985-89.846-19.998-35.55 9.08-54.954 37.047-68.717 61.773-22.456-17.991-51.365-36.482-88.216-31.414-36.868 5.086-59.4 31.207-75.895 54.605-20.647-20.233-47.664-41.663-85.258-40.175-37.557 1.64-62.565 25.923-81.227 47.909-18.67-21.986-43.688-46.27-81.245-47.909-37.405-1.724-64.6 19.951-85.267 40.175-16.494-23.389-39.036-49.528-75.896-54.615-36.783-5.049-65.749 13.404-88.215 31.405-13.753-24.727-33.158-52.693-68.689-61.755-35.248-8.987-65.636 5.161-89.845 19.988-9.854-25.716-24.718-55.115-57.149-69.188-30.953-13.442-61.37-6.735-86.766 2.523-3.052-25.508-9.796-53.353-33.666-74.058-16.852-14.619-36.671-21.166-55.934-24.133 4.7-9.844 8.411-20.535 10.145-32.027h1.111c0-2.327-.301-4.56-.471-6.829.17-2.271.471-4.493.471-6.82h-1.111c-1.733-11.492-5.436-22.164-10.136-32.018 19.264-2.967 39.083-9.514 55.944-24.143 23.851-20.714 30.586-48.54 33.638-74.039 25.404 9.26 55.802 15.957 86.756 2.524 32.47-14.092 47.334-43.5 57.178-69.216 24.228 14.826 54.652 28.984 89.863 19.998 35.531-9.081 54.945-37.048 68.717-61.766 22.447 17.982 51.356 36.482 88.207 31.406 36.868-5.087 59.4-31.208 75.895-54.598 20.647 20.234 47.664 41.654 85.248 40.166 37.566-1.639 62.566-25.923 81.236-47.908 18.679 21.985 43.688 46.27 81.245 47.908 37.405 1.724 64.601-19.941 85.267-40.175 16.504 23.398 39.036 49.528 75.896 54.615 36.783 5.059 65.749-13.404 88.215-31.405 13.753 24.736 33.158 52.694 68.689 61.766 35.248 8.977 65.637-5.172 89.845-19.989 9.854 25.706 24.708 55.105 57.149 69.179 30.953 13.451 61.37 6.734 86.766-2.524 3.052 25.509 9.796 53.353 33.656 74.058 16.861 14.619 36.681 21.176 55.944 24.133-4.691 9.854-8.412 20.535-10.146 32.027h-1.111c0 2.336.301 4.56.471 6.83-.17 2.27-.471 4.502-.471 6.819h1.111c1.733 11.492 5.436 22.165 10.146 32.027-19.271 2.97-39.09 9.507-55.951 24.136"/><path fill="none" stroke="#FFBDD5" stroke-miterlimit="10" stroke-width="3" d="M2132.293 1690.069c-26.14-44.037-75.471-44.395-108.129-44.63-.659-.01-1.347-.01-2.063-.019-2.854-32.696-8.327-79.635-50.886-104.588-38.159-22.391-78.25-7.78-106.33 3.834-10.645-29.126-27.543-67.531-69.244-81.387-40.213-13.328-74.491 5.869-100.574 22.692-14.469-26.648-36.294-60.635-77.816-68.613-40.91-7.94-72.277 14.667-95.987 34.325-17.097-24.688-42.153-55.595-83.628-59.297-41.211-3.532-70.187 21.515-91.833 43.293-19.179-22.908-46.825-51.196-88.188-51.196-41.353 0-68.99 28.278-88.159 51.178-21.628-21.769-50.461-46.967-91.795-43.274-41.476 3.684-66.541 34.589-83.638 59.288-23.7-19.669-55.068-42.172-95.987-34.335-41.531 7.988-63.366 41.983-77.845 68.632-26.093-16.833-60.323-36.077-100.556-22.701-41.729 13.847-58.638 52.298-69.281 81.424-28.09-11.624-68.218-26.233-106.377-3.843-42.54 24.971-48.013 71.881-50.857 104.577-.716.01-1.403.01-2.054.019-32.658.236-81.989.594-108.129 44.621-29.747 50.113 1.403 98.719 19.292 125.66-17.889 26.939-49.039 75.546-19.292 125.658 26.14 44.037 75.471 44.387 108.129 44.621.659.01 1.347.01 2.063.02 2.845 32.705 8.317 79.635 50.885 104.587 38.169 22.391 78.25 7.78 106.33-3.834 10.645 29.126 27.543 67.53 69.244 81.396 40.213 13.32 74.491-5.877 100.565-22.691 14.478 26.648 36.304 60.625 77.825 68.613 40.9 7.932 72.269-14.667 95.978-34.326 17.097 24.689 42.163 55.586 83.638 59.298 41.212 3.532 70.187-21.515 91.833-43.293 19.179 22.899 46.825 51.187 88.188 51.187 41.353 0 68.99-28.278 88.159-51.178 21.628 21.779 50.462 46.967 91.795 43.284 41.466-3.684 66.541-34.599 83.638-59.288 23.7 19.659 55.068 42.172 95.987 34.326 41.531-7.988 63.366-41.984 77.845-68.623 26.093 16.823 60.333 36.068 100.556 22.701 41.729-13.856 58.646-52.289 69.282-81.424 28.089 11.614 68.217 26.234 106.377 3.844 42.539-24.973 48.012-71.883 50.856-104.588.716-.01 1.403-.01 2.054-.019 32.658-.235 81.989-.575 108.129-44.621 29.747-50.113-1.403-98.719-19.292-125.649 17.889-26.951 49.039-75.557 19.292-125.661zm-207.95 188.64c-23.851 20.714-30.585 48.55-33.638 74.039-25.404-9.25-55.802-15.957-86.755-2.524-32.47 14.092-47.335 43.5-57.188 69.217-24.218-14.827-54.644-28.985-89.846-19.998-35.55 9.08-54.954 37.047-68.717 61.773-22.456-17.991-51.365-36.482-88.216-31.414-36.868 5.086-59.4 31.207-75.895 54.605-20.647-20.233-47.664-41.663-85.258-40.175-37.557 1.64-62.565 25.923-81.227 47.909-18.67-21.986-43.688-46.27-81.245-47.909-37.405-1.724-64.6 19.951-85.267 40.175-16.494-23.389-39.036-49.528-75.896-54.615-36.783-5.049-65.749 13.404-88.215 31.405-13.753-24.727-33.158-52.693-68.689-61.755-35.248-8.987-65.636 5.161-89.845 19.988-9.854-25.716-24.718-55.115-57.149-69.188-30.953-13.442-61.37-6.735-86.766 2.523-3.052-25.508-9.796-53.353-33.666-74.058-16.852-14.619-36.671-21.166-55.934-24.133 4.7-9.844 8.411-20.535 10.145-32.027h1.111c0-2.327-.301-4.56-.471-6.829.17-2.271.471-4.493.471-6.82h-1.111c-1.733-11.492-5.436-22.164-10.136-32.018 19.264-2.967 39.083-9.514 55.944-24.143 23.851-20.714 30.586-48.54 33.638-74.039 25.404 9.26 55.802 15.957 86.756 2.524 32.47-14.092 47.334-43.5 57.178-69.216 24.228 14.826 54.652 28.984 89.863 19.998 35.531-9.081 54.945-37.048 68.717-61.766 22.447 17.982 51.356 36.482 88.207 31.406 36.868-5.087 59.4-31.208 75.895-54.598 20.647 20.234 47.664 41.654 85.248 40.166 37.566-1.639 62.566-25.923 81.236-47.908 18.679 21.985 43.688 46.27 81.245 47.908 37.405 1.724 64.601-19.941 85.267-40.175 16.504 23.398 39.036 49.528 75.896 54.615 36.783 5.059 65.749-13.404 88.215-31.405 13.753 24.736 33.158 52.694 68.689 61.766 35.248 8.977 65.637-5.172 89.845-19.989 9.854 25.706 24.708 55.105 57.149 69.179 30.953 13.451 61.37 6.734 86.766-2.524 3.052 25.509 9.796 53.353 33.656 74.058 16.861 14.619 36.681 21.176 55.944 24.133-4.691 9.854-8.412 20.535-10.146 32.027h-1.111c0 2.336.301 4.56.471 6.83-.17 2.27-.471 4.502-.471 6.819h1.111c1.733 11.492 5.436 22.165 10.146 32.027-19.271 2.97-39.09 9.507-55.951 24.136z"/><path fill="none" stroke="#FFBDD5" stroke-linecap="round" stroke-linejoin="round" stroke-miterlimit="10" stroke-width="4" d="M634.84 2288.166c40.382 58.317 99.595 131.329 197.588 140.08 97.334 8.337 165.797-50.828 216.937-102.279 45.318 54.116 110.615 120.931 208.326 120.931 97.692 0 162.971-66.795 208.271-120.893 51.093 51.441 119.197 110.945 216.832 102.241 97.984-8.713 157.216-81.726 197.579-140.043"/><path fill="#FFF" d="M1257.615 1382.336c-463.695 0-839.589 156.292-839.589 349.086 0 1.479.084 2.948.132 4.418 2.581 86.266 80.378 164.995 207.432 225.366 153.899 73.116 379.981 119.311 632.025 119.311s478.126-46.194 632.007-119.311c127.072-60.371 204.869-139.101 207.45-225.366.038-1.47.132-2.939.132-4.418 0-192.793-375.893-349.086-839.589-349.086"/><path fill="none" stroke="#EAEAEA" stroke-miterlimit="10" stroke-width="4" d="M1257.615 1382.336c-463.695 0-839.589 156.292-839.589 349.086 0 1.479.084 2.948.132 4.418 2.581 86.266 80.378 164.995 207.432 225.366 153.899 73.116 379.981 119.311 632.025 119.311s478.126-46.194 632.007-119.311c127.072-60.371 204.869-139.101 207.45-225.366.038-1.47.132-2.939.132-4.418 0-192.793-375.893-349.086-839.589-349.086z"/><path fill="#FFCCE1" d="M2132.293 1593.612c-26.14-44.037-75.471-44.396-108.129-44.631-.659-.01-1.347-.01-2.063-.02-2.854-32.695-8.327-79.634-50.886-104.587-38.159-22.391-78.25-7.78-106.33 3.834-10.645-29.126-27.543-67.53-69.244-81.386-40.213-13.329-74.491 5.869-100.574 22.692-14.469-26.658-36.294-60.635-77.816-68.613-40.91-7.94-72.277 14.667-95.987 34.326-17.087-24.689-42.153-55.595-83.638-59.297-41.201-3.532-70.177 21.515-91.823 43.293-19.179-22.908-46.825-51.196-88.188-51.196-41.353 0-68.99 28.278-88.159 51.178-21.628-21.778-50.461-46.967-91.795-43.274-41.476 3.684-66.541 34.589-83.638 59.278-23.7-19.659-55.068-42.163-95.987-34.325-41.531 7.988-63.366 41.983-77.845 68.632-26.093-16.833-60.323-36.077-100.556-22.701-41.729 13.847-58.638 52.289-69.281 81.424-28.09-11.624-68.218-26.234-106.377-3.844-42.54 24.963-48.022 71.883-50.857 104.579-.716.01-1.403.01-2.054.02-32.658.235-81.989.593-108.129 44.621-29.747 50.112 1.403 98.719 19.292 125.658-17.889 26.941-49.039 75.547-19.292 125.66 26.14 44.037 75.471 44.385 108.129 44.621.669.009 1.347.009 2.063.019 2.845 32.705 8.317 79.634 50.885 104.587 38.169 22.391 78.25 7.781 106.33-3.834 10.645 29.126 27.543 67.54 69.244 81.396 40.213 13.319 74.491-5.878 100.565-22.692 14.478 26.648 36.304 60.625 77.825 68.604 40.9 7.941 72.269-14.657 95.978-34.315 17.097 24.688 42.163 55.586 83.638 59.297 41.212 3.532 70.187-21.515 91.833-43.293 19.179 22.899 46.825 51.187 88.188 51.187 41.353 0 68.99-28.278 88.159-51.177 21.628 21.777 50.462 46.967 91.795 43.283 41.466-3.692 66.541-34.599 83.638-59.288 23.7 19.659 55.068 42.173 95.987 34.325 41.531-7.987 63.366-41.983 77.845-68.622 26.093 16.823 60.333 36.068 100.556 22.701 41.72-13.856 58.646-52.288 69.282-81.424 28.089 11.614 68.217 26.233 106.377 3.843 42.539-24.971 48.012-71.881 50.856-104.587.716-.009 1.403-.009 2.054-.019 32.658-.235 81.989-.584 108.129-44.621 29.747-50.113-1.403-98.719-19.292-125.65 17.889-26.953 49.039-75.558 19.292-125.662m-162.142 132.479c1.733 11.492 5.436 22.165 10.146 32.027-19.273 2.967-39.093 9.504-55.954 24.133-23.851 20.715-30.585 48.55-33.638 74.039-25.404-9.25-55.802-15.957-86.755-2.524-32.47 14.092-47.335 43.501-57.188 69.216-24.218-14.826-54.644-28.984-89.846-19.998-35.55 9.081-54.954 37.049-68.717 61.775-22.456-17.992-51.365-36.482-88.216-31.415-36.868 5.087-59.4 31.208-75.895 54.606-20.647-20.243-47.664-41.664-85.258-40.176-37.557 1.639-62.565 25.924-81.227 47.909-18.67-21.985-43.688-46.271-81.245-47.909-37.405-1.724-64.6 19.941-85.267 40.176-16.494-23.39-39.036-49.529-75.896-54.616-36.783-5.049-65.749 13.404-88.215 31.405-13.753-24.727-33.158-52.693-68.689-61.756-35.248-8.986-65.636 5.162-89.845 19.989-9.854-25.716-24.718-55.115-57.149-69.188-30.953-13.441-61.37-6.734-86.766 2.525-3.052-25.509-9.787-53.354-33.666-74.059-16.852-14.619-36.671-21.166-55.934-24.133 4.7-9.854 8.411-20.535 10.145-32.027v-13.649c-1.733-11.491-5.436-22.164-10.145-32.018 19.272-2.967 39.092-9.514 55.953-24.143 23.859-20.714 30.586-48.54 33.638-74.039 25.404 9.26 55.802 15.957 86.756 2.524 32.47-14.092 47.334-43.5 57.178-69.216 24.228 14.827 54.644 28.984 89.863 19.998 35.531-9.081 54.945-37.048 68.717-61.775 22.447 17.991 51.356 36.493 88.207 31.415 36.868-5.086 59.4-31.208 75.895-54.596 20.647 20.233 47.673 41.653 85.248 40.165 37.566-1.639 62.566-25.923 81.236-47.908 18.679 21.985 43.688 46.27 81.245 47.908 37.405 1.724 64.601-19.941 85.267-40.165 16.494 23.389 39.045 49.52 75.896 54.606 36.783 5.059 65.749-13.405 88.215-31.406 13.753 24.736 33.158 52.695 68.689 61.765 35.248 8.978 65.637-5.171 89.845-19.998 9.854 25.717 24.708 55.115 57.149 69.188 30.953 13.451 61.37 6.735 86.766-2.524 3.052 25.509 9.796 53.354 33.656 74.058 16.861 14.619 36.681 21.176 55.944 24.134-4.691 9.853-8.412 20.535-10.146 32.026v13.651z"/><path fill="none" stroke="#FFBDD5" stroke-miterlimit="10" stroke-width="3" d="M2132.293 1593.612c-26.14-44.037-75.471-44.396-108.129-44.631-.659-.01-1.347-.01-2.063-.02-2.854-32.695-8.327-79.634-50.886-104.587-38.159-22.391-78.25-7.78-106.33 3.834-10.645-29.126-27.543-67.53-69.244-81.386-40.213-13.329-74.491 5.869-100.574 22.692-14.469-26.658-36.294-60.635-77.816-68.613-40.91-7.94-72.277 14.667-95.987 34.326-17.087-24.689-42.153-55.595-83.638-59.297-41.201-3.532-70.177 21.515-91.823 43.293-19.179-22.908-46.825-51.196-88.188-51.196-41.353 0-68.99 28.278-88.159 51.178-21.628-21.778-50.461-46.967-91.795-43.274-41.476 3.684-66.541 34.589-83.638 59.278-23.7-19.659-55.068-42.163-95.987-34.325-41.531 7.988-63.366 41.983-77.845 68.632-26.093-16.833-60.323-36.077-100.556-22.701-41.729 13.847-58.638 52.289-69.281 81.424-28.09-11.624-68.218-26.234-106.377-3.844-42.54 24.963-48.022 71.883-50.857 104.579-.716.01-1.403.01-2.054.02-32.658.235-81.989.593-108.129 44.621-29.747 50.112 1.403 98.719 19.292 125.658-17.889 26.941-49.039 75.547-19.292 125.66 26.14 44.037 75.471 44.385 108.129 44.621.669.009 1.347.009 2.063.019 2.845 32.705 8.317 79.634 50.885 104.587 38.169 22.391 78.25 7.781 106.33-3.834 10.645 29.126 27.543 67.54 69.244 81.396 40.213 13.319 74.491-5.878 100.565-22.692 14.478 26.648 36.304 60.625 77.825 68.604 40.9 7.941 72.269-14.657 95.978-34.315 17.097 24.688 42.163 55.586 83.638 59.297 41.212 3.532 70.187-21.515 91.833-43.293 19.179 22.899 46.825 51.187 88.188 51.187 41.353 0 68.99-28.278 88.159-51.177 21.628 21.777 50.462 46.967 91.795 43.283 41.466-3.692 66.541-34.599 83.638-59.288 23.7 19.659 55.068 42.173 95.987 34.325 41.531-7.987 63.366-41.983 77.845-68.622 26.093 16.823 60.333 36.068 100.556 22.701 41.72-13.856 58.646-52.288 69.282-81.424 28.089 11.614 68.217 26.233 106.377 3.843 42.539-24.971 48.012-71.881 50.856-104.587.716-.009 1.403-.009 2.054-.019 32.658-.235 81.989-.584 108.129-44.621 29.747-50.113-1.403-98.719-19.292-125.65 17.889-26.953 49.039-75.558 19.292-125.662zm-162.142 132.479c1.733 11.492 5.436 22.165 10.146 32.027-19.273 2.967-39.093 9.504-55.954 24.133-23.851 20.715-30.585 48.55-33.638 74.039-25.404-9.25-55.802-15.957-86.755-2.524-32.47 14.092-47.335 43.501-57.188 69.216-24.218-14.826-54.644-28.984-89.846-19.998-35.55 9.081-54.954 37.049-68.717 61.775-22.456-17.992-51.365-36.482-88.216-31.415-36.868 5.087-59.4 31.208-75.895 54.606-20.647-20.243-47.664-41.664-85.258-40.176-37.557 1.639-62.565 25.924-81.227 47.909-18.67-21.985-43.688-46.271-81.245-47.909-37.405-1.724-64.6 19.941-85.267 40.176-16.494-23.39-39.036-49.529-75.896-54.616-36.783-5.049-65.749 13.404-88.215 31.405-13.753-24.727-33.158-52.693-68.689-61.756-35.248-8.986-65.636 5.162-89.845 19.989-9.854-25.716-24.718-55.115-57.149-69.188-30.953-13.441-61.37-6.734-86.766 2.525-3.052-25.509-9.787-53.354-33.666-74.059-16.852-14.619-36.671-21.166-55.934-24.133 4.7-9.854 8.411-20.535 10.145-32.027v-13.649c-1.733-11.491-5.436-22.164-10.145-32.018 19.272-2.967 39.092-9.514 55.953-24.143 23.859-20.714 30.586-48.54 33.638-74.039 25.404 9.26 55.802 15.957 86.756 2.524 32.47-14.092 47.334-43.5 57.178-69.216 24.228 14.827 54.644 28.984 89.863 19.998 35.531-9.081 54.945-37.048 68.717-61.775 22.447 17.991 51.356 36.493 88.207 31.415 36.868-5.086 59.4-31.208 75.895-54.596 20.647 20.233 47.673 41.653 85.248 40.165 37.566-1.639 62.566-25.923 81.236-47.908 18.679 21.985 43.688 46.27 81.245 47.908 37.405 1.724 64.601-19.941 85.267-40.165 16.494 23.389 39.045 49.52 75.896 54.606 36.783 5.059 65.749-13.405 88.215-31.406 13.753 24.736 33.158 52.695 68.689 61.765 35.248 8.978 65.637-5.171 89.845-19.998 9.854 25.717 24.708 55.115 57.149 69.188 30.953 13.451 61.37 6.735 86.766-2.524 3.052 25.509 9.796 53.354 33.656 74.058 16.861 14.619 36.681 21.176 55.944 24.134-4.691 9.853-8.412 20.535-10.146 32.026v13.651z"/><linearGradient id="f" x1="634.8423" x2="644.4882" y1="2124.5105" y2="2124.5105" gradientTransform="matrix(5.8421 -1.1899 1.1899 5.8421 -4794.0981 -9319.7178)" gradientUnits="userSpaceOnUse"><stop offset="0" style="stop-color:#fc4142"/><stop offset="1" style="stop-color:#fc9142"/></linearGradient><path fill="url(#f)" d="m1441.705 2373.094 71.957-14.648-14.252-69.97-71.957 14.648z"/><path fill="none" d="M1464.821 2301.325c-15.562 3.165-25.612 18.35-22.438 33.911 3.165 15.57 18.35 25.603 33.921 22.438 15.552-3.175 25.603-18.358 22.428-33.93-2.778-13.621-14.76-23.013-28.146-23.013-1.894 0-3.824.198-5.765.594"/><path fill="none" stroke="red" stroke-miterlimit="10" stroke-width="3" d="M1498.741 2323.753c-3.174-15.561-18.359-25.603-33.92-22.438-15.562 3.175-25.612 18.359-22.438 33.921 3.165 15.562 18.359 25.603 33.921 22.438 15.551-3.165 25.602-18.359 22.437-33.921z"/><linearGradient id="g" x1="695.6816" x2="705.3256" y1="2130.9822" y2="2130.9822" gradientTransform="matrix(5.8421 -1.1899 1.1899 5.8421 -4752.0981 -9323.7178)" gradientUnits="userSpaceOnUse"><stop offset="0" style="stop-color:#fc4142"/><stop offset="1" style="stop-color:#fc9142"/></linearGradient><path fill="url(#g)" d="m1846.838 2334.51 71.938-14.647-14.252-69.97-71.938 14.648z"/><path fill="none" d="M1869.944 2262.732c-15.562 3.175-25.603 18.359-22.438 33.921 3.174 15.561 18.358 25.603 33.92 22.438 15.552-3.175 25.594-18.359 22.429-33.921-2.779-13.63-14.761-23.021-28.165-23.021-1.893-.001-3.815.188-5.746.583"/><path fill="none" stroke="red" stroke-miterlimit="10" stroke-width="3" d="M1903.865 2285.17c-3.185-15.562-18.359-25.603-33.921-22.438-15.562 3.175-25.612 18.359-22.438 33.921 3.165 15.561 18.358 25.603 33.92 22.438 15.553-3.165 25.604-18.36 22.439-33.921z"/><linearGradient id="h" x1="513.8003" x2="523.4429" y1="2093.9373" y2="2093.9373" gradientTransform="matrix(5.8421 -1.1899 1.1899 5.8421 -4880.0981 -9323.7178)" gradientUnits="userSpaceOnUse"><stop offset="0" style="stop-color:#fc4142"/><stop offset="1" style="stop-color:#fc9142"/></linearGradient><path fill="url(#h)" d="m612.166 2334.51 71.958-14.647-14.252-69.97-71.958 14.648z"/><path fill="none" d="M635.282 2262.732c-15.562 3.175-25.612 18.359-22.438 33.921 3.175 15.561 18.359 25.603 33.92 22.438 15.553-3.175 25.604-18.359 22.429-33.921-2.77-13.63-14.761-23.021-28.155-23.021-1.893-.001-3.824.188-5.756.583"/><path fill="none" stroke="red" stroke-miterlimit="10" stroke-width="3" d="M669.203 2285.17c-3.175-15.562-18.359-25.603-33.921-22.438-15.562 3.175-25.612 18.359-22.438 33.921 3.165 15.561 18.359 25.603 33.92 22.438 15.553-3.165 25.604-18.36 22.439-33.921z"/><linearGradient id="i" x1="572.3232" x2="581.9662" y1="2111.7761" y2="2111.7761" gradientTransform="matrix(5.8421 -1.1899 1.1899 5.8421 -4838.0981 -9319.7178)" gradientUnits="userSpaceOnUse"><stop offset="0" style="stop-color:#fc4142"/><stop offset="1" style="stop-color:#fc9142"/></linearGradient><path fill="url(#i)" d="m1017.29 2373.094 71.957-14.648-14.252-69.97-71.957 14.648z"/><path fill="none" d="M1040.406 2301.325c-15.571 3.165-25.612 18.35-22.438 33.911 3.165 15.57 18.35 25.603 33.921 22.438 15.562-3.175 25.603-18.358 22.429-33.93-2.779-13.621-14.761-23.013-28.146-23.013-1.895 0-3.825.198-5.766.594"/><path fill="none" stroke="red" stroke-miterlimit="10" stroke-width="3" d="M1074.326 2323.753c-3.174-15.561-18.358-25.603-33.92-22.438-15.562 3.175-25.612 18.359-22.438 33.921 3.165 15.562 18.359 25.603 33.921 22.438 15.551-3.165 25.602-18.359 22.437-33.921z"/><path fill="#4DCE9F" d="M1295.03 1750.563h-74.84c-13.95 0-25.272-11.313-25.272-25.283v-518.537c0-13.96 11.322-25.283 25.272-25.283h74.84c13.96 0 25.282 11.323 25.282 25.283v518.537c.001 13.97-11.322 25.283-25.282 25.283"/><path fill="none" stroke="#21AA75" stroke-miterlimit="10" stroke-width="3" d="M1295.03 1750.563h-74.84c-13.95 0-25.272-11.313-25.272-25.283v-518.537c0-13.96 11.322-25.283 25.272-25.283h74.84c13.96 0 25.282 11.323 25.282 25.283v518.537c.001 13.97-11.322 25.283-25.282 25.283z"/><path fill="#21AA75" d="m1328.706 939.327-125.302 69.904-16.88-28.25 125.302-69.913zM1328.706 1032.535l-125.302 69.904-16.88-28.26 125.302-69.903zM1328.706 1125.734l-125.302 69.903-16.88-28.249 125.302-69.904zM1328.706 1218.942l-125.302 69.903-16.88-28.249 125.302-69.904zM1328.706 1312.15l-125.302 69.904-16.88-28.25 125.302-69.904zM1328.706 1405.358l-125.302 69.904-16.88-28.25 125.302-69.903zM1328.706 1498.567l-125.302 69.903-16.88-28.25 125.302-69.913zM1328.706 1591.775l-125.302 69.903-16.88-28.258 125.302-69.905zM1328.706 1684.973l-125.302 69.905-16.88-28.25 125.302-69.905z"/><path fill="none" d="M1234.669 1195.929c-13.96 0-25.282 11.313-25.282 25.283v489.599c0 13.97 11.322 25.273 25.282 25.273h45.893c13.96 0 25.283-11.304 25.283-25.273v-489.599c0-13.97-11.323-25.283-25.283-25.283h-45.893z"/><path fill="#FF5757" d="M837.665 690.326c-1.3 1.092 2.431-1.413 3.052-1.696 1.705-.801.349-.094.057.009 1.056-.348 2.11-.603 3.185-.876.386-.104 2.967-.32.772-.16.848-.056 1.686-.075 2.524-.084.848 0 1.686.028 2.533.066 4.908.188-.979-.339 1.733.245 7.376 1.564 12.293 4.503 17.568 10.682 4.408 5.162 8.006 12.783 10.191 19.471 2.656 8.044 5.633 17.464 4.324 25.951-.443 2.835.019.979-1.074 3.062-.772 1.46-.941 1.507-1.479 2.157-.387.461-.632.96-2.044 1.008 2.166-.076-.584-.283-1.112-.509-3.504-1.46-7.111-3.749-9.155-5.736-1.395-1.356-2.177-2.393-2.553-3.062-.49-.886-.604-1.112-.641-1.922-.075-2.091-.123-.132-.095.208-.132-1.517.227-1.922.028-.462.02-.179 1.403-2.006.443-.923-1.141 1.281 1.026-1.046 1.28-1.281 1.272-1.168.151-.283-.141-.057.819-.64 1.827-1.225 2.713-1.743.716-.405 1.432-.782 2.166-1.149 2.478-1.206-3.062.885 1.62-.593 4.513-1.432 5.501-1.583 9.109-1.79 4.106-.226 8.327-.179 12.415.405-1.922-.273.961.245 1.093.273 1.158.235 2.317.48 3.467.753 2.6.641 5.152 1.413 7.667 2.317 3.269 1.168 6.717 2.92 10.673 5.351 6.914 4.267 13.31 10.475 17.671 17.191 4.598 7.112 13.904 10.051 21.468 5.633 7.065-4.135 10.258-14.327 5.624-21.467-15.251-23.521-39.912-38.282-67.662-41.438-25.471-2.892-61.389 8.572-60.927 39.647.235 15.627 12.095 28.655 25.245 35.625 15.071 8.007 32.582 8.129 44.753-5.19 11.529-12.604 12.33-29.39 9.335-45.403-2.563-13.659-7.423-27.845-15.213-39.421-8.939-13.263-21.685-24.039-37.566-27.685-16.418-3.759-32.31-.377-45.242 10.399-6.519 5.435-5.614 16.588 0 22.193 6.445 6.453 15.668 5.445 22.195.001"/><path fill="#FFE600" d="M1512.381 553.062c.217 1.686.104-2.807.188-3.485.227-1.875.113-.349.038-.047.272-1.083.621-2.11.961-3.165.122-.376 1.328-2.675.282-.744.396-.725.829-1.451 1.271-2.167.452-.716.933-1.413 1.413-2.11 2.779-4.041-.81.65 1.14-1.338 5.257-5.388 10.362-7.979 18.406-9.137 6.717-.97 15.091.066 21.91 1.78 8.205 2.063 17.766 4.578 24.237 10.22 2.166 1.884.848.5 2.016 2.543.829 1.432.772 1.601 1.036 2.402.179.565.471 1.046-.245 2.27 1.093-1.875-.546.339-1.017.669-3.1 2.176-6.971 4.003-9.75 4.672-1.884.452-3.184.556-3.946.518-1.009-.057-1.253-.085-1.96-.49-1.817-1.055-.188.038.113.198-1.338-.697-1.498-1.215-.367-.273-.132-.113-.942-2.261-.537-.867.471 1.648-.339-1.422-.405-1.771-.32-1.696-.16-.283-.132.094-.104-1.037-.057-2.195-.019-3.222.037-.82.113-1.639.197-2.449.312-2.75-.895 3.062.358-1.686 1.206-4.587 1.602-5.501 3.344-8.647 2.007-3.598 4.305-7.14 6.989-10.286-1.262 1.479.716-.688.811-.782.81-.848 1.639-1.705 2.496-2.525 1.912-1.855 3.947-3.607 6.048-5.247 2.741-2.138 6.057-4.116 10.22-6.161 7.301-3.561 15.967-5.652 23.983-5.746 8.468-.094 15.919-6.396 16.221-15.137.292-8.186-6.622-16.334-15.147-16.23-28.014.32-53.674 13.292-71.175 35.061-16.052 19.979-25.537 56.462.97 72.683 13.329 8.157 30.68 5.077 43.604-2.308 14.817-8.459 24.275-23.201 19.527-40.599-4.502-16.494-18.265-26.13-33.402-32.149-12.905-5.134-27.496-8.609-41.446-8.205-15.985.471-31.905 5.482-43.473 16.965-11.944 11.86-17.586 27.101-15.382 43.802 1.111 8.402 11.021 13.602 18.764 11.859 8.893-2.006 12.962-10.333 11.86-18.763"/><path fill="#7DC1FF" d="M258.428 1016.06c.217 1.686.104-2.807.188-3.485.226-1.875.113-.349.037-.047.273-1.083.622-2.11.961-3.165.123-.377 1.328-2.676.283-.744.396-.726.828-1.451 1.271-2.167.452-.716.933-1.413 1.413-2.11 2.778-4.041-.811.65 1.14-1.337 5.256-5.388 10.361-7.979 18.406-9.137 6.716-.97 15.09.066 21.91 1.78 8.204 2.063 17.766 4.578 24.236 10.22 2.167 1.884.849.5 2.017 2.543.829 1.432.772 1.601 1.036 2.402.179.565.471 1.046-.245 2.271 1.093-1.875-.547.339-1.018.669-3.099 2.176-6.971 4.003-9.749 4.672-1.884.452-3.175.556-3.947.518-1.008-.056-1.253-.084-1.959-.49-1.818-1.055-.188.038.113.198-1.338-.697-1.498-1.215-.368-.273-.132-.113-.941-2.261-.536-.867.471 1.648-.34-1.422-.405-1.771-.32-1.695-.16-.283-.132.094-.104-1.036-.057-2.195-.019-3.222.037-.819.112-1.639.197-2.449.311-2.751-.895 3.061.358-1.687 1.205-4.587 1.601-5.501 3.344-8.647 2.006-3.598 4.305-7.14 6.989-10.286-1.262 1.479.716-.688.811-.782.819-.848 1.639-1.705 2.496-2.525 1.912-1.855 3.946-3.607 6.047-5.246 2.741-2.139 6.058-4.117 10.221-6.161 7.301-3.561 15.967-5.651 23.982-5.746 8.469-.094 15.92-6.396 16.221-15.137.292-8.186-6.622-16.333-15.138-16.23-28.023.32-53.683 13.291-71.185 35.06-16.042 19.979-25.537 56.462.971 72.683 13.329 8.158 30.68 5.077 43.604-2.308 14.817-8.459 24.274-23.2 19.527-40.599-4.503-16.494-18.265-26.13-33.402-32.149-12.905-5.134-27.496-8.61-41.447-8.205-15.985.471-31.904 5.482-43.472 16.965-11.944 11.86-17.587 27.101-15.383 43.802 1.112 8.402 11.021 13.603 18.765 11.859 8.893-2.006 12.962-10.334 11.861-18.764M1946.442 1353.662c.216 1.687.104-2.807.188-3.485.227-1.874.113-.348.038-.047.273-1.083.622-2.11.961-3.165.122-.377 1.328-2.675.282-.744.396-.726.829-1.45 1.271-2.167.452-.716.933-1.413 1.413-2.11 2.779-4.041-.81.65 1.14-1.338 5.257-5.388 10.362-7.979 18.406-9.137 6.717-.971 15.091.065 21.91 1.78 8.205 2.063 17.766 4.578 24.237 10.22 2.167 1.884.848.5 2.016 2.543.829 1.432.772 1.602 1.036 2.402.18.565.472 1.045-.244 2.27 1.092-1.874-.547.339-1.018.669-3.1 2.176-6.971 4.003-9.75 4.672-1.884.452-3.184.556-3.946.519-1.008-.057-1.253-.085-1.96-.49-1.817-1.055-.188.038.113.198-1.337-.697-1.497-1.215-.367-.273-.132-.113-.942-2.261-.537-.866.472 1.648-.339-1.423-.405-1.771-.319-1.695-.16-.282-.132.095-.104-1.036-.056-2.195-.019-3.222.038-.819.113-1.639.198-2.449.311-2.75-.896 3.062.357-1.686 1.206-4.587 1.602-5.501 3.344-8.647 2.007-3.598 4.306-7.14 6.99-10.287-1.263 1.479.716-.688.81-.781.811-.848 1.64-1.705 2.496-2.524 1.912-1.856 3.947-3.608 6.048-5.247 2.741-2.139 6.057-4.116 10.221-6.161 7.3-3.561 15.966-5.652 23.982-5.746 8.468-.095 15.919-6.396 16.221-15.138.292-8.186-6.622-16.334-15.147-16.23-28.014.32-53.673 13.292-71.175 35.061-16.052 19.979-25.537 56.462.97 72.683 13.329 8.157 30.681 5.077 43.604-2.308 14.817-8.458 24.274-23.201 19.526-40.599-4.502-16.494-18.265-26.13-33.402-32.149-12.904-5.134-27.496-8.609-41.446-8.205-15.985.471-31.904 5.482-43.472 16.965-11.944 11.859-17.587 27.101-15.383 43.802 1.111 8.402 11.021 13.602 18.764 11.859 8.894-2.008 12.963-10.335 11.861-18.766"/>
		</symbol>

		<symbol id="cke4-icon-emoji-6" viewBox="0 0 34 34"  fill="#454545">
		</symbol>

		<symbol id="cke4-icon-emoji-7" viewBox="0 0 34 34" fill="#454545">
		</symbol>

		<symbol id="cke4-icon-emoji-8" viewBox="0 0 34 34"  fill="#454545">
		</symbol>

		<symbol id="cke4-icon-emoji-9" viewBox="0 0 34 34" fill="#454545">
		</symbol>

		<symbol id="cke4-icon-emoji-10" viewBox="0 0 34 34" fill="#454545">
			<path d="M24.0262636,21.2319113 L33.6101333,30.5592 L30.1716,34 L20.4197867,24.5823493 C18.3640092,25.8812696 15.9280529,26.6330279 13.3165139,26.6330279 C5.96200637,26.6330279 0,20.6710215 0,13.3165139 C0,5.96200637 5.96200637,-5.68434189e-14 13.3165139,-5.68434189e-14 C20.6710215,-5.68434189e-14 26.6330279,5.96200637 26.6330279,13.3165139 C26.6330279,16.2809788 25.6643535,19.0191975 24.0262636,21.2319113 Z M13.3165139,23.0648142 C18.7003515,23.0648142 23.0648142,18.7003515 23.0648142,13.3165139 C23.0648142,7.93267637 18.7003515,3.56821367 13.3165139,3.56821367 C7.93267637,3.56821367 3.56821367,7.93267637 3.56821367,13.3165139 C3.56821367,18.7003515 7.93267637,23.0648142 13.3165139,23.0648142 Z" id="path"></path>
		</symbol>
	</defs>
</svg>
